<svg width="70" height="70" viewBox="0 0 70 70" fill="none" xmlns="http://www.w3.org/2000/svg">
<g clip-path="url(#clip0)">
<path d="M35.1201 69.6668C54.1165 69.6668 69.5161 54.2672 69.5161 35.2709C69.5161 16.2745 54.1165 0.874878 35.1201 0.874878C16.1237 0.874878 0.724121 16.2745 0.724121 35.2709C0.724121 54.2672 16.1237 69.6668 35.1201 69.6668Z" fill="#EFC849"/>
<path d="M39.0192 42.6811C39.0192 43.5892 38.2838 44.3241 37.3762 44.3241H18.4772C17.5701 44.3241 16.8342 43.5887 16.8342 42.6811V16.3881C16.8342 15.48 17.5701 14.7451 18.4772 14.7451H37.3756C38.2831 14.7451 39.0186 15.4804 39.0186 16.3881V42.6811H39.0192Z" fill="#E7E7E7"/>
<path d="M36.7075 21.9063C36.7075 22.1892 36.4777 22.4184 36.1948 22.4184H19.7822C19.4993 22.4184 19.2695 22.1892 19.2695 21.9063C19.2695 21.6234 19.4993 21.393 19.7822 21.393H36.1948C36.4777 21.393 36.7075 21.6234 36.7075 21.9063Z" fill="#C9C9C8"/>
<path d="M36.7075 24.599C36.7075 24.8819 36.4777 25.1123 36.1948 25.1123H19.7822C19.4993 25.1123 19.2695 24.8819 19.2695 24.599C19.2695 24.3161 19.4993 24.0858 19.7822 24.0858H36.1948C36.4777 24.0852 36.7075 24.3156 36.7075 24.599Z" fill="#C9C9C8"/>
<path d="M36.7075 19.2129C36.7075 19.4958 36.4777 19.7262 36.1948 19.7262H19.7822C19.4993 19.7262 19.2695 19.4958 19.2695 19.2129C19.2695 18.93 19.4993 18.7008 19.7822 18.7008H36.1948C36.4777 18.7007 36.7075 18.9299 36.7075 19.2129Z" fill="#C9C9C8"/>
<path d="M36.7075 27.2913C36.7075 27.5754 36.4777 27.8045 36.1948 27.8045H19.7822C19.4993 27.8045 19.2695 27.5754 19.2695 27.2913C19.2695 27.0084 19.4993 26.7792 19.7822 26.7792H36.1948C36.4777 26.7786 36.7075 27.0078 36.7075 27.2913Z" fill="#C9C9C8"/>
<path d="M36.7075 29.8559C36.7075 30.1388 36.4777 30.3691 36.1948 30.3691H19.7822C19.4993 30.3691 19.2695 30.1388 19.2695 29.8559C19.2695 29.573 19.4993 29.3426 19.7822 29.3426H36.1948C36.4777 29.3426 36.7075 29.573 36.7075 29.8559Z" fill="#C9C9C8"/>
<path d="M36.7075 32.5481C36.7075 32.831 36.4777 33.0614 36.1948 33.0614H19.7822C19.4993 33.0614 19.2695 32.831 19.2695 32.5481C19.2695 32.2652 19.4993 32.036 19.7822 32.036H36.1948C36.4777 32.036 36.7075 32.2652 36.7075 32.5481Z" fill="#C9C9C8"/>
<path d="M56.1273 47.2976C56.1273 48.2057 55.392 48.9406 54.4844 48.9406H35.5854C34.6783 48.9406 33.9424 48.2053 33.9424 47.2976V21.0046C33.9424 20.0965 34.6783 19.3616 35.5854 19.3616H54.4838C55.3913 19.3616 56.1267 20.097 56.1267 21.0046V47.2976H56.1273Z" fill="#F3F4F5"/>
<path d="M53.8155 26.5226C53.8155 26.8055 53.5857 27.0347 53.3028 27.0347H36.8901C36.6072 27.0347 36.3774 26.8055 36.3774 26.5226C36.3774 26.2397 36.6072 26.0094 36.8901 26.0094H53.3027C53.5857 26.0094 53.8155 26.2397 53.8155 26.5226Z" fill="#C9C9C8"/>
<path d="M53.8155 29.2155C53.8155 29.4984 53.5857 29.7288 53.3028 29.7288H36.8901C36.6072 29.7288 36.3774 29.4984 36.3774 29.2155C36.3774 28.9326 36.6072 28.7023 36.8901 28.7023H53.3027C53.5857 28.7017 53.8155 28.932 53.8155 29.2155Z" fill="#C9C9C8"/>
<path d="M53.8155 23.8294C53.8155 24.1123 53.5857 24.3426 53.3028 24.3426H36.8901C36.6072 24.3426 36.3774 24.1123 36.3774 23.8294C36.3774 23.5465 36.6072 23.3173 36.8901 23.3173H53.3027C53.5857 23.3171 53.8155 23.5463 53.8155 23.8294Z" fill="#C9C9C8"/>
<path d="M53.8155 31.9078C53.8155 32.1919 53.5857 32.4211 53.3028 32.4211H36.8901C36.6072 32.4211 36.3774 32.1919 36.3774 31.9078C36.3774 31.6249 36.6072 31.3957 36.8901 31.3957H53.3027C53.5857 31.395 53.8155 31.6243 53.8155 31.9078Z" fill="#C9C9C8"/>
<path d="M53.8155 34.4723C53.8155 34.7552 53.5857 34.9856 53.3028 34.9856H36.8901C36.6072 34.9856 36.3774 34.7552 36.3774 34.4723C36.3774 34.1894 36.6072 33.959 36.8901 33.959H53.3027C53.5857 33.959 53.8155 34.1894 53.8155 34.4723Z" fill="#C9C9C8"/>
<path d="M53.8155 37.1652C53.8155 37.4481 53.5857 37.6785 53.3028 37.6785H36.8901C36.6072 37.6785 36.3774 37.4481 36.3774 37.1652C36.3774 36.8823 36.6072 36.6531 36.8901 36.6531H53.3027C53.5857 36.6525 53.8155 36.8817 53.8155 37.1652Z" fill="#C9C9C8"/>
<path d="M27.0868 26.9517C26.1793 26.9517 25.4438 27.6876 25.4438 28.5947V54.8877C25.4438 55.7958 26.1792 56.5317 27.0868 56.5317H45.9854C46.8929 56.5317 47.6284 55.7958 47.6284 54.8877V34.5614L39.7069 26.9517H27.0868Z" fill="#F5F5F5"/>
<path d="M47.628 34.5614H41.3495C40.442 34.5614 39.7065 33.8261 39.7065 32.9185V26.9517L47.628 34.5614Z" fill="#E1E1E1"/>
<path d="M45.3161 36.8067C45.3161 37.0896 45.0863 37.3188 44.8034 37.3188H28.3907C28.1078 37.3188 27.8774 37.0896 27.8774 36.8067C27.8774 36.5238 28.1078 36.2935 28.3907 36.2935H44.8033C45.0869 36.2931 45.3161 36.5233 45.3161 36.8067Z" fill="#C9C9C8"/>
<path d="M45.3161 39.4991C45.3161 39.782 45.0863 40.0123 44.8034 40.0123H28.3907C28.1078 40.0123 27.8774 39.782 27.8774 39.4991C27.8774 39.2162 28.1078 38.9858 28.3907 38.9858H44.8033C45.0869 38.9854 45.3161 39.2156 45.3161 39.4991Z" fill="#C9C9C8"/>
<path d="M45.3161 42.0625C45.3161 42.3454 45.0863 42.5758 44.8034 42.5758H28.3907C28.1078 42.5758 27.8774 42.3454 27.8774 42.0625C27.8774 41.7796 28.1078 41.5503 28.3907 41.5503H44.8033C45.0869 41.5504 45.3161 41.7796 45.3161 42.0625Z" fill="#C9C9C8"/>
<path d="M45.3161 44.756C45.3161 45.0389 45.0863 45.2682 44.8034 45.2682H28.3907C28.1078 45.2682 27.8774 45.039 27.8774 44.756C27.8774 44.4731 28.1078 44.2427 28.3907 44.2427H44.8033C45.0869 44.2427 45.3161 44.4729 45.3161 44.756Z" fill="#C9C9C8"/>
<path d="M36.9824 46.936H28.3907C28.1078 46.936 27.8774 47.1652 27.8774 47.4481C27.8774 47.731 28.1078 47.9614 28.3907 47.9614H36.9818C37.2647 47.9614 37.4945 47.731 37.4945 47.4481C37.4946 47.1652 37.2654 46.936 36.9824 46.936Z" fill="#C9C9C8"/>
</g>
<defs>
<clipPath id="clip0">
<rect width="68.7918" height="68.7918" fill="white" transform="translate(0.724121 0.874878)"/>
</clipPath>
</defs>
</svg>
