<svg width="69" height="69" viewBox="0 0 69 69" fill="none" xmlns="http://www.w3.org/2000/svg">
<g clip-path="url(#clip0)">
<path d="M64.7522 27.0148H58.3655C57.3389 27.0148 56.4932 26.4497 56.1 25.5016C55.7069 24.5534 55.9066 23.5547 56.631 22.8291L61.1467 18.3146C61.8104 17.6509 62.1758 16.7672 62.1758 15.8292C62.1758 14.8899 61.8104 14.0075 61.1467 13.3425L55.3908 7.58662C54.0634 6.25921 51.7487 6.25668 50.4187 7.58662L45.9043 12.1011C45.1786 12.8255 44.1774 13.0277 43.2318 12.6333C42.2836 12.2401 41.7185 11.3944 41.7185 10.3679V3.98113C41.7185 2.04311 40.1421 0.46666 38.2041 0.46666H30.0626C28.1246 0.46666 26.5481 2.04311 26.5481 3.98113V10.3679C26.5481 11.3944 25.9831 12.2401 25.0349 12.6333C24.0893 13.029 23.088 12.8255 22.3624 12.1011L17.8479 7.58662C16.518 6.25668 14.2033 6.25921 12.8759 7.58662L7.11996 13.3425C6.45626 14.0062 6.0909 14.8899 6.0909 15.8292C6.0909 16.7672 6.45626 17.6496 7.11996 18.3146L11.6357 22.8291C12.3601 23.5547 12.5585 24.5534 12.1666 25.5016C11.7747 26.4497 10.9277 27.0148 9.9012 27.0148H3.51447C1.57645 27.0148 0 28.5913 0 30.5293V38.6694C0 40.6087 1.57645 42.1852 3.51447 42.1852H9.9012C10.9277 42.1852 11.7735 42.7503 12.1666 43.6984C12.5598 44.6466 12.3601 45.6453 11.6357 46.3709L7.11996 50.8854C6.45626 51.5491 6.0909 52.4328 6.0909 53.3708C6.0909 54.3101 6.45626 55.1925 7.11996 55.8575L12.8759 61.6134C14.2045 62.942 16.518 62.9446 17.8479 61.6134L22.3624 57.0977C23.088 56.3733 24.0855 56.1735 25.0349 56.5667C25.9831 56.9599 26.5481 57.8056 26.5481 58.8321V65.2189C26.5481 67.1569 28.1246 68.7333 30.0626 68.7333H38.2028C40.1408 68.7333 41.7173 67.1569 41.7173 65.2189V58.8321C41.7173 57.8056 42.2824 56.9599 43.2305 56.5667C44.1799 56.1723 45.1774 56.3733 45.903 57.0977L50.4175 61.6134C51.7474 62.9433 54.0621 62.9408 55.3896 61.6134L61.1454 55.8575C61.8092 55.1938 62.1745 54.3101 62.1745 53.3708C62.1745 52.4328 61.8092 51.5504 61.1454 50.8854L56.6297 46.3709C55.9053 45.6453 55.7069 44.6466 56.0988 43.6984C56.4907 42.7503 57.3389 42.1852 58.3655 42.1852H64.7522C66.6902 42.1852 68.2667 40.6087 68.2667 38.6707V30.5293C68.2667 28.5913 66.6902 27.0148 64.7522 27.0148ZM65.7383 38.6707C65.7383 39.2143 65.2958 39.6568 64.7522 39.6568H58.3655C56.3124 39.6568 54.5489 40.835 53.7638 42.7313C52.9775 44.6276 53.3909 46.7085 54.8434 48.1598L59.3591 52.6742C59.7447 53.0598 59.7447 53.6856 59.3591 54.0699L53.6032 59.8258C53.2189 60.2101 52.5931 60.2126 52.2076 59.8258L47.6931 55.3101C46.2406 53.8575 44.1609 53.4467 42.2647 54.2305C40.3684 55.0155 39.1901 56.7791 39.1901 58.8321V65.2189C39.1901 65.7625 38.7477 66.2049 38.2041 66.2049H30.0626C29.519 66.2049 29.0765 65.7625 29.0765 65.2189V58.8321C29.0765 56.7791 27.8983 55.0155 26.002 54.2305C25.3661 53.9662 24.7113 53.8373 24.064 53.8373C22.7821 53.8373 21.5394 54.343 20.5736 55.3088L16.0591 59.8245C15.6723 60.2114 15.0465 60.2088 14.6634 59.8245L8.90754 54.0686C8.52196 53.6831 8.52196 53.0573 8.90754 52.673L13.4233 48.1585C14.8745 46.7072 15.2892 44.6263 14.5029 42.73C13.7178 40.835 11.9543 39.6568 9.9012 39.6568H3.51447C2.97086 39.6568 2.5284 39.2143 2.5284 38.6707V30.5293C2.5284 29.9857 2.97086 29.5432 3.51447 29.5432H9.9012C11.9543 29.5432 13.7178 28.365 14.5029 26.4687C15.2892 24.5724 14.8758 22.4915 13.4233 21.0402L8.90754 16.5258C8.52196 16.1402 8.52196 15.5144 8.90754 15.1301L14.6634 9.3742C15.0477 8.98862 15.6735 8.98862 16.0591 9.3742L20.5736 13.8886C22.0236 15.3387 24.1032 15.7546 26.002 14.9683C27.8983 14.1845 29.0765 12.4209 29.0765 10.3679V3.98113C29.0765 3.43752 29.519 2.99505 30.0626 2.99505H38.2028C38.7477 2.99505 39.1901 3.43752 39.1901 3.98113V10.3679C39.1901 12.4209 40.3684 14.1845 42.2647 14.9695C44.1635 15.7559 46.2418 15.3412 47.6931 13.8899L52.2076 9.37546C52.5944 8.98988 53.2202 8.98988 53.6032 9.37546L59.3591 15.1314C59.7447 15.5169 59.7447 16.1427 59.3591 16.527L54.8434 21.0415C53.3921 22.4928 52.9775 24.5736 53.7638 26.4699C54.5489 28.3662 56.3124 29.5445 58.3655 29.5445H64.7522C65.2958 29.5432 65.7383 29.9857 65.7383 30.5293V38.6707Z" fill="white"/>
<path d="M34.1334 23.2222C27.8592 23.2222 22.7556 28.3258 22.7556 34.6C22.7556 40.8742 27.8592 45.9778 34.1334 45.9778C40.4076 45.9778 45.5112 40.8742 45.5112 34.6C45.5112 28.3258 40.4076 23.2222 34.1334 23.2222ZM34.1334 43.4494C29.2549 43.4494 25.284 39.4785 25.284 34.6C25.284 29.7215 29.2549 25.7506 34.1334 25.7506C39.0119 25.7506 42.9828 29.7215 42.9828 34.6C42.9828 39.4785 39.0119 43.4494 34.1334 43.4494Z" fill="white"/>
</g>
<defs>
<clipPath id="clip0">
<rect width="68.2667" height="68.2667" fill="white" transform="translate(0 0.46666)"/>
</clipPath>
</defs>
</svg>
