<svg width="67" height="67" viewBox="0 0 67 67" fill="none" xmlns="http://www.w3.org/2000/svg">
<g clip-path="url(#clip0)">
<path d="M66.9553 33.0823C66.9553 14.8529 52.1785 0.0772705 33.9511 0.0772705C15.723 0.0771375 0.946167 14.8526 0.946167 33.0823C0.946167 51.3091 15.723 66.0858 33.9513 66.0858C52.1785 66.0857 66.9553 51.309 66.9553 33.0823Z" fill="#E5AA17"/>
<path d="M30.6245 16.1836H22.6412C21.9064 16.1836 21.3108 16.7795 21.3108 17.514V48.6487C21.3108 49.3835 21.9064 49.9791 22.6412 49.9791H30.6245C31.3592 49.9791 31.9549 49.3835 31.9549 48.6487V17.514C31.9549 16.7795 31.3592 16.1836 30.6245 16.1836Z" fill="white"/>
<path d="M45.2598 16.1836H37.2765C36.5418 16.1836 35.9461 16.7795 35.9461 17.514V48.6487C35.9461 49.3835 36.5418 49.9791 37.2765 49.9791H45.2598C45.9946 49.9791 46.5902 49.3835 46.5902 48.6487V17.514C46.5902 16.7795 45.9946 16.1836 45.2598 16.1836Z" fill="white"/>
</g>
<defs>
<clipPath id="clip0">
<rect width="66.0092" height="66.0092" fill="white" transform="translate(0.946167 0.0768738)"/>
</clipPath>
</defs>
</svg>
