<svg width="69" height="70" viewBox="0 0 69 70" fill="none" xmlns="http://www.w3.org/2000/svg">
<g clip-path="url(#clip0)">
<path d="M34.8 68.5274C53.3535 68.5274 68.3941 53.4869 68.3941 34.9333C68.3941 16.3798 53.3535 1.33923 34.8 1.33923C16.2465 1.33923 1.20593 16.3798 1.20593 34.9333C1.20593 53.4869 16.2465 68.5274 34.8 68.5274Z" fill="#DF5C4E"/>
<path d="M34.8 45.6102C33.3441 45.6102 32.1039 44.4239 32.1039 42.9679V19.5114C32.1039 18.0555 33.3441 16.8691 34.8 16.8691C36.256 16.8691 37.4962 18.0555 37.4962 19.5114V42.9679C37.4962 44.4239 36.256 45.6102 34.8 45.6102Z" fill="#F4EFEF"/>
<path d="M34.8001 54.13C34.0991 54.13 33.3981 53.8604 32.9128 53.3751C32.4275 52.8898 32.1578 52.1888 32.1578 51.4878C32.1578 50.7868 32.4275 50.0858 32.9128 49.6005C33.3981 49.1152 34.0991 48.7916 34.8001 48.7916C35.5011 48.7916 36.2021 49.0612 36.6874 49.6005C37.1727 50.0858 37.4962 50.7868 37.4962 51.4878C37.4962 52.1888 37.2266 52.8898 36.6874 53.3751C36.2021 53.8604 35.5011 54.13 34.8001 54.13Z" fill="#F4EFEF"/>
<path d="M34.8001 69.0667C15.9809 69.0667 0.666748 53.7526 0.666748 34.9334C0.666748 16.1142 15.9809 0.800049 34.8001 0.800049C53.6193 0.800049 68.9334 16.1142 68.9334 34.9334C68.9334 53.7526 53.6193 69.0667 34.8001 69.0667ZM34.8001 1.87851C16.5741 1.87851 1.74521 16.7074 1.74521 34.9334C1.74521 53.1594 16.5741 67.9883 34.8001 67.9883C53.0261 67.9883 67.855 53.1594 67.855 34.9334C67.855 16.7074 53.0261 1.87851 34.8001 1.87851Z" fill="black"/>
<path d="M34.2608 46.1494C32.4813 46.1494 31.0254 44.6935 31.0254 42.968V19.5114C31.0254 17.732 32.4813 16.33 34.2608 16.33C36.0402 16.33 37.4962 17.7859 37.4962 19.5114V42.968C37.4962 44.6935 36.0402 46.1494 34.2608 46.1494ZM34.2608 17.3545C33.0745 17.3545 32.1039 18.3251 32.1039 19.4575V42.9141C32.1039 44.1004 33.0745 45.0171 34.2608 45.0171C35.4471 45.0171 36.4177 44.0464 36.4177 42.9141V19.4575C36.4177 18.3251 35.4471 17.3545 34.2608 17.3545Z" fill="black"/>
<path d="M34.2608 54.6692C33.398 54.6692 32.5892 54.3457 31.996 53.7525C31.4029 53.1594 31.0793 52.3505 31.0793 51.4877C31.0793 50.625 31.4029 49.8161 31.996 49.223C32.5892 48.6298 33.452 48.3063 34.2608 48.3063C35.1236 48.3063 35.9324 48.6298 36.5256 49.223C37.1187 49.8161 37.4423 50.625 37.4423 51.4877C37.4423 52.3505 37.1187 53.1594 36.4717 53.7525C35.9324 54.3457 35.1236 54.6692 34.2608 54.6692ZM34.2608 49.3308C33.7216 49.3308 33.1284 49.5465 32.751 49.9779C32.3735 50.3554 32.1578 50.8946 32.1578 51.4877C32.1578 52.027 32.3735 52.6201 32.8049 52.9976C33.1823 53.3751 33.7755 53.6447 34.3147 53.6447C34.854 53.6447 35.4471 53.429 35.8246 52.9976C36.202 52.6201 36.4717 52.027 36.4717 51.4877C36.4717 50.9485 36.256 50.3554 35.8246 49.9779C35.3393 49.5465 34.8 49.3308 34.2608 49.3308Z" fill="black"/>
</g>
<defs>
<clipPath id="clip0">
<rect width="68.2667" height="68.2667" fill="white" transform="translate(0.666748 0.800049)"/>
</clipPath>
</defs>
</svg>
