<svg width="70" height="70" viewBox="0 0 70 70" fill="none" xmlns="http://www.w3.org/2000/svg">
<g clip-path="url(#clip0)">
<path d="M64.4413 17.7064V64.3448C64.4413 66.9099 62.3426 69.0086 59.7775 69.0086H10.8071C8.24204 69.0086 6.14331 66.9099 6.14331 64.3448V6.04683C6.14331 3.48176 8.24204 1.38303 10.8071 1.38303H48.1178V13.0426C48.1178 15.6077 50.2165 17.7064 52.7816 17.7064H64.4413Z" fill="#F2EDDA"/>
<path d="M64.441 17.7064H52.7815C50.2164 17.7064 48.1177 15.6077 48.1177 13.0426V1.38303L64.441 17.7064Z" fill="#FFD0A1"/>
<path d="M24.7981 57.3492C27.3632 57.3492 29.4619 55.2505 29.4619 52.6854C29.4619 50.1203 27.3632 48.0216 24.7981 48.0216C22.233 48.0216 20.1343 50.1202 20.1343 52.6853C20.1343 55.2505 22.233 57.3492 24.7981 57.3492ZM43.4536 52.6853C46.0186 52.6853 48.1174 50.5865 48.1174 48.0215C48.1174 45.4564 46.0186 43.3577 43.4536 43.3577C40.8885 43.3577 38.7898 45.4564 38.7898 48.0215C38.7898 50.5865 40.8884 52.6853 43.4536 52.6853Z" fill="#FF7474"/>
<path d="M59.7773 69.5918H10.8069C7.89203 69.5918 5.56006 67.2598 5.56006 64.345V6.04682C5.56006 3.13196 7.89203 0.799988 10.8069 0.799988H48.1177C48.2343 0.799988 48.4675 0.916538 48.5841 0.916538L60.2436 12.5761C60.4769 12.8093 60.4769 13.1591 60.2436 13.3922C60.0104 13.6255 59.6606 13.6255 59.4275 13.3922L47.8845 1.84922H10.8069C8.5916 1.84922 6.72598 3.71471 6.72598 5.93013V64.2283C6.72598 66.4436 8.59147 68.3092 10.8069 68.3092H59.7773C61.9926 68.3092 63.8582 66.4437 63.8582 64.2283V18.1729H52.7815C49.8667 18.1729 47.5347 15.8409 47.5347 12.926V7.09618C47.5347 6.74639 47.7679 6.51315 48.1177 6.51315C48.4675 6.51315 48.7007 6.74639 48.7007 7.09618V12.926C48.7007 15.1413 50.5662 17.0069 52.7817 17.0069H64.4412C64.791 17.0069 65.0243 17.2402 65.0243 17.59V64.2284C65.0241 67.2598 62.6923 69.5918 59.7773 69.5918ZM24.7984 57.9321C21.8836 57.9321 19.5516 55.6001 19.5516 52.6852C19.5516 49.7704 21.8836 47.4384 24.7984 47.4384C25.1482 47.4384 25.3815 47.6717 25.3815 48.0214C25.3815 48.3712 25.1482 48.6045 24.7984 48.6045C22.5831 48.6045 20.7175 50.47 20.7175 52.6854C20.7175 54.9007 22.583 56.7663 24.7984 56.7663C27.0139 56.7663 28.8793 54.9008 28.8793 52.6854V31.6981C28.8793 31.4648 29.1126 31.2317 29.3457 31.115L48.001 26.4512C48.1176 26.4512 48.3508 26.4512 48.4674 26.5678C48.5839 26.6843 48.7006 26.801 48.7006 27.0341V48.0214C48.7006 50.9363 46.3686 53.2683 43.4538 53.2683C40.5389 53.2683 38.207 50.9363 38.207 48.0214C38.207 45.1066 40.5389 42.7746 43.4538 42.7746C43.8036 42.7746 44.0368 43.0079 44.0368 43.3576C44.0368 43.7074 43.8036 43.9407 43.4538 43.9407C41.2385 43.9407 39.3729 45.8062 39.3729 48.0216C39.3729 50.2369 41.2384 52.1025 43.4538 52.1025C45.6692 52.1025 47.5347 50.237 47.5347 48.0216V27.7337L30.0453 32.1644V52.6854C30.0453 55.6002 27.7134 57.9321 24.7984 57.9321Z" fill="#51565F"/>
</g>
<defs>
<clipPath id="clip0">
<rect width="68.7918" height="68.7918" fill="white" transform="translate(0.895996 0.799988)"/>
</clipPath>
</defs>
</svg>
