<svg width="67" height="67" viewBox="0 0 67 67" fill="none" xmlns="http://www.w3.org/2000/svg">
<g clip-path="url(#clip0)">
<path d="M33.5969 66.086C51.8248 66.086 66.6015 51.3094 66.6015 33.0815C66.6015 14.8535 51.8248 0.0768738 33.5969 0.0768738C15.3689 0.0768738 0.592285 14.8535 0.592285 33.0815C0.592285 51.3094 15.3689 66.086 33.5969 66.086Z" fill="#E5AA17"/>
<path d="M66.6016 33.0815C66.6016 51.2721 51.8966 65.9771 33.5971 65.9771C15.4064 65.9771 0.592468 51.2721 0.592468 33.0815" fill="#E5AA17"/>
<path d="M25.9718 33.0815L35.7752 23.2781V10.7516L13.4453 33.0815L35.7752 55.4113V42.8848L25.9718 33.0815Z" fill="white"/>
<path d="M13.4453 33.0815L35.7752 55.4113V42.8848L25.9718 33.0815L35.7752 23.2781" fill="white"/>
<path d="M44.2009 23.255L34.4193 33.0367L44.2009 42.8183L53.9826 33.0367L44.2009 23.255Z" fill="white"/>
<path d="M34.468 33.0815L44.2713 42.8848L53.9657 33.0815" fill="white"/>
</g>
<defs>
<clipPath id="clip0">
<rect width="66.0092" height="66.0092" fill="white" transform="translate(0.592285 0.0768738)"/>
</clipPath>
</defs>
</svg>
