<svg width="112" height="112" viewBox="0 0 112 112" fill="none" xmlns="http://www.w3.org/2000/svg">
<g clip-path="url(#clip0)" filter="url(#filter0_d)">
<path d="M77.6619 17.0692C86.5502 17.0692 85.9946 2.07025 98.0683 2.07025C105.429 2.07025 110.012 9.29213 106.401 17.0692C103.594 23.1155 99.7348 30.4017 101.401 35.4013L77.6619 17.0692Z" fill="#C39B6E"/>
<path d="M34.3312 17.0692C25.4429 17.0692 25.9985 2.07025 13.9248 2.07025C6.56414 2.07025 1.98122 9.29213 5.59205 17.0692C8.39935 23.1155 12.2583 30.4017 10.5916 35.4013L34.3312 17.0692Z" fill="#C39B6E"/>
<path d="M55.9965 10.403C27.4635 10.403 4.33313 25.4019 4.33313 62.0663C4.33313 90.3977 27.4635 105.397 55.9965 105.397C84.5294 105.397 107.66 90.3979 107.66 62.0663C107.66 25.4019 84.5296 10.403 55.9965 10.403Z" fill="#AA825A"/>
<path d="M55.9965 18.7356C37.5883 18.7356 15.999 30.5771 15.999 59.5225C15.999 81.8893 33.9063 93.7306 55.9965 93.7306C78.0867 93.7306 95.994 81.8893 95.994 59.5225C95.994 30.5771 74.405 18.7356 55.9965 18.7356Z" fill="#8C705C"/>
<path d="M48.7823 57.0665C47.7813 53.6892 45.5898 47.0671 39.205 47.0671C34.4163 47.0671 20.5325 57.2223 16.8579 68.7323C13.6654 78.7317 32.665 95.3973 50.3788 95.3973C58.9869 95.3976 51.4977 66.2296 48.7823 57.0665Z" fill="#7C665D"/>
<path d="M63.2779 57.0665C64.279 53.6892 66.4704 47.0671 72.8554 47.0671C77.6442 47.0671 91.5277 57.2223 95.2025 68.7323C98.395 78.7317 79.3954 95.3973 61.6817 95.3973C53.0735 95.3976 60.5625 66.2296 63.2779 57.0665Z" fill="#7C665D"/>
<path d="M42.6642 87.0646C42.6642 92.4335 51.3946 97.0639 55.9967 97.0639C60.5988 97.0639 69.3292 92.4335 69.3292 87.0646H42.6642Z" fill="#C39B6E"/>
<path d="M59.5912 53.7334H52.4014C50.4931 53.7334 48.7564 54.8115 47.9154 56.5244C44.5767 63.3251 38.3454 80.7753 40.9973 88.7311C42.4879 93.203 52.6631 88.7311 55.9962 88.7311C59.3294 88.7311 69.5048 93.203 70.9952 88.7311C73.6471 80.7753 67.416 63.3251 64.0771 56.5244C63.2362 54.8115 61.4998 53.7334 59.5912 53.7334Z" fill="#D7B487"/>
<path d="M39.331 57.0671C41.1719 57.0671 42.6642 55.5748 42.6642 53.734C42.6642 51.8932 41.1719 50.4009 39.331 50.4009C37.4902 50.4009 35.9979 51.8932 35.9979 53.734C35.9979 55.5748 37.4902 57.0671 39.331 57.0671Z" fill="#464655"/>
<path d="M72.662 57.0671C74.5029 57.0671 75.9952 55.5748 75.9952 53.734C75.9952 51.8932 74.5029 50.4009 72.662 50.4009C70.8212 50.4009 69.3289 51.8932 69.3289 53.734C69.3289 55.5748 70.8212 57.0671 72.662 57.0671Z" fill="#464655"/>
<path d="M55.9965 83.1072C60.7711 83.1072 64.6417 80.6822 64.6417 77.6909C64.6417 74.6996 60.7711 72.2747 55.9965 72.2747C51.2219 72.2747 47.3513 74.6996 47.3513 77.6909C47.3513 80.6822 51.2219 83.1072 55.9965 83.1072Z" fill="#464655"/>
<path d="M42.6642 53.7334C42.6642 51.8957 41.1688 50.4003 39.331 50.4003C37.4933 50.4003 35.9979 51.8957 35.9979 53.7334C35.9979 55.5711 37.4933 57.0665 39.331 57.0665C41.1688 57.0665 42.6642 55.5713 42.6642 53.7334Z" fill="black"/>
<path d="M72.6621 50.4003C70.8244 50.4003 69.329 51.8957 69.329 53.7334C69.329 55.5711 70.8244 57.0665 72.6621 57.0665C74.4998 57.0665 75.9952 55.5711 75.9952 53.7334C75.9952 51.8957 74.5 50.4003 72.6621 50.4003Z" fill="black"/>
<g filter="url(#filter1_d)">
<path d="M102.703 31.44C103.124 30.9117 103.199 30.1577 102.83 29.5446C102.152 28.4134 103.664 25.6996 105.266 22.8267C106.106 21.3196 107.058 19.6115 107.913 17.7715C109.925 13.4375 109.794 8.93941 107.554 5.43024C105.516 2.23587 102.058 0.403992 98.0681 0.403992C92.1559 0.403992 89.4219 4.95149 87.0096 8.96316C85.8027 10.9702 84.6911 12.8171 83.3048 14.0138C75.4302 10.5615 65.9881 8.7367 55.9963 8.7367C46.1194 8.7367 36.7823 10.5225 28.9625 13.8982C27.6373 12.6998 26.5588 10.9061 25.3906 8.96337C22.9788 4.95149 20.245 0.403992 14.3325 0.403992C10.3423 0.403992 6.88481 2.23587 4.84606 5.43003C2.60648 8.9392 2.47606 13.4375 4.48815 17.7715C5.34252 19.6115 6.2944 21.3196 7.13481 22.8267C8.73648 25.6998 10.2492 28.4134 9.57023 29.5446C9.28315 30.0234 9.26565 30.5875 9.47106 31.0636C7.86752 34.359 6.67377 37.8502 5.82981 40.7865C3.81981 47.7827 2.66669 55.5394 2.66669 62.0667C2.66669 76.0802 8.1219 87.7269 18.4423 95.7477C23.2146 99.4565 28.9242 102.313 35.4131 104.237C41.7377 106.113 48.6631 107.064 55.9969 107.064C63.3306 107.064 70.2561 106.113 76.5806 104.237C83.0694 102.313 88.7792 99.4563 93.5513 95.7477C103.871 87.7267 109.327 76.08 109.327 62.0667C109.327 55.5402 108.174 47.7846 106.164 40.789C105.352 37.9634 104.216 34.6242 102.703 31.44ZM55.9965 103.731C25.6246 103.731 5.9996 87.3765 5.9996 62.0667C5.9996 55.8377 7.10544 48.4167 9.03335 41.7069C11.1411 34.3715 14.0284 28.6444 17.1634 25.5804C17.8217 24.9371 17.8338 23.8821 17.1902 23.2238C16.5469 22.5652 15.4919 22.5534 14.8336 23.1969C13.9809 24.0302 13.1875 24.9744 12.4502 25.9957C11.8842 24.5021 10.9931 22.9036 10.0459 21.2038C9.19419 19.6759 8.31356 18.0961 7.51106 16.3677C5.98773 13.0867 6.04044 9.75378 7.65565 7.22337C9.06981 5.00753 11.5034 3.73691 14.3325 3.73691C18.3596 3.73691 20.2942 6.95462 22.5342 10.6807C24.8044 14.4563 27.3773 18.7361 32.6646 18.7361C33.585 18.7361 34.3311 17.9898 34.3311 17.0696C34.3311 16.4844 34.029 15.9709 33.5727 15.6734C40.2598 13.3119 47.9273 12.0698 55.9963 12.0698C64.1754 12.0698 71.9431 13.345 78.694 15.77C78.3134 16.0754 78.0692 16.5438 78.0692 17.0696C78.0692 17.99 78.8154 18.7361 79.7356 18.7361C85.0227 18.7361 87.5959 14.4565 89.8659 10.6807C92.1059 6.95462 94.0406 3.73691 98.0677 3.73691C100.897 3.73691 103.33 5.00774 104.744 7.22295C106.36 9.75357 106.412 13.0865 104.889 16.3675C104.086 18.0954 103.206 19.6754 102.354 21.2036C101.325 23.0492 100.364 24.7757 99.8117 26.3775C99 25.2113 98.119 24.1354 97.1623 23.2004C96.5042 22.5569 95.4494 22.569 94.8056 23.2271C94.1623 23.8852 94.1742 24.9404 94.8323 25.5838C97.9663 28.6475 100.853 34.3742 102.96 41.709C104.887 48.4182 105.993 55.8382 105.993 62.0665C105.993 87.3765 86.3684 103.731 55.9965 103.731Z" fill="black"/>
</g>
<path d="M98.5165 13.5257C99.2948 13.9596 100.283 13.7036 100.75 12.9359C101.229 12.1498 100.98 11.1246 100.193 10.6459C99.3959 10.1605 97.7694 9.6136 95.8342 11.4055C94.9042 12.2665 94.0177 13.5336 93.0788 14.8748C91.3965 17.2788 89.4894 20.0036 87.334 20.4344C86.4313 20.6148 85.8461 21.4932 86.0265 22.3955C86.185 23.1878 86.8809 23.7357 87.659 23.7357C87.7673 23.7357 87.8773 23.7248 87.9875 23.703C91.4536 23.0098 93.8688 19.5586 95.8096 16.7859C96.6475 15.5892 97.8963 13.8053 98.5165 13.5257Z" fill="black"/>
<path d="M24.6587 20.4346C22.5035 20.0036 20.5965 17.279 18.914 14.875C17.975 13.5338 17.0885 12.2667 16.1585 11.4057C14.2233 9.61421 12.5969 10.1609 11.7994 10.6461C11.0131 11.1246 10.77 12.1467 11.2485 12.9325C11.7133 13.6963 12.7 13.95 13.476 13.5259C14.0967 13.8055 15.3452 15.5892 16.1829 16.7861C18.1235 19.559 20.539 23.01 24.005 23.7032C24.1154 23.7253 24.2252 23.7359 24.3335 23.7359C25.1117 23.7359 25.8077 23.188 25.9658 22.3957C26.1467 21.493 25.5612 20.615 24.6587 20.4346Z" fill="black"/>
<path d="M67.5975 58.2713C67.5221 58.0088 67.3808 57.7611 67.174 57.5542C66.5231 56.9036 65.4681 56.9036 64.8173 57.5546C63.9642 58.4082 64.4575 59.4329 64.6196 59.7696C64.7156 59.9694 64.861 60.2567 65.0448 60.6198C66.5169 63.5279 70.9956 72.3779 70.9956 78.7317C70.9956 82.5952 70.3677 85.0586 69.0763 86.2627C67.481 87.75 64.5635 87.5454 60.8704 87.2863C59.8306 87.2134 58.764 87.1417 57.6617 87.1002C57.6619 87.0882 57.6635 87.0765 57.6635 87.0644V83.7367C58.0398 83.7386 58.4 83.74 58.7388 83.74C62.4713 83.74 65.9965 83.74 65.9965 78.7317C65.9965 74.1369 61.5106 70.399 55.9971 70.399C50.4835 70.399 45.9977 74.1371 45.9977 78.7317C45.9977 80.1159 46.2154 82.0684 48.0975 83.0434C49.3465 83.6902 51.0229 83.7402 53.2552 83.7402C53.5938 83.7402 53.9542 83.7388 54.3304 83.7369V87.0646C54.3304 87.0771 54.3321 87.0888 54.3323 87.1011C53.2119 87.144 52.1285 87.2192 51.0725 87.2957C47.4031 87.5611 44.5048 87.7707 42.9196 86.2954C41.6265 85.0925 40.9981 82.6186 40.9981 78.7317C40.9981 74.2813 43.211 67.6244 47.2294 59.9873C47.5548 59.3688 47.6644 59.1604 47.6644 58.7329C47.6644 57.8125 46.9181 57.0665 45.9979 57.0665C45.3029 57.0665 44.7073 57.4919 44.4571 58.0963C44.4215 58.1669 44.3608 58.2813 44.2796 58.4355C39.9521 66.6598 37.6648 73.6784 37.6648 78.7321C37.6648 83.6632 38.6131 86.8421 40.6492 88.7361C40.7669 88.8454 40.8873 88.949 41.0098 89.0477C41.2581 94.3686 47.7144 100.397 55.9969 100.397C64.2969 100.397 70.7623 94.3429 70.9852 89.0144C71.1088 88.9146 71.2308 88.8113 71.3494 88.7007C73.3821 86.8054 74.329 83.6377 74.329 78.7317C74.329 71.5825 69.7446 62.5246 68.019 59.1148C67.85 58.7813 67.6763 58.4382 67.5975 58.2713ZM67.1783 59.9073C67.3173 59.7673 67.4265 59.6088 67.5056 59.4396C67.4304 59.6019 67.324 59.7609 67.1783 59.9073ZM49.63 80.0838C49.5558 80.0452 49.3302 79.9286 49.3302 78.7317C49.3302 75.975 52.3206 73.7321 55.9965 73.7321C59.6723 73.7321 62.6627 75.975 62.6627 78.7317C62.6627 79.9282 62.4369 80.0452 62.3627 80.0838C61.7381 80.4073 59.8602 80.4073 58.7381 80.4073C58.3621 80.4073 57.9631 80.4054 57.5402 80.4034C57.0571 80.4009 56.5431 80.3986 55.9963 80.3986C55.4496 80.3986 54.9354 80.4011 54.4523 80.4034C54.0294 80.4054 53.6302 80.4073 53.2544 80.4073C52.1327 80.4071 50.2544 80.4071 49.63 80.0838ZM55.9965 97.064C50.4231 97.064 46.1202 93.6884 44.7742 90.6229C45.6119 90.7594 46.4929 90.8117 47.4065 90.8117C48.661 90.8117 49.9748 90.7167 51.3123 90.62C52.8238 90.5109 54.3865 90.3977 55.9965 90.3977C57.591 90.3977 59.1394 90.5063 60.6369 90.6113C62.9679 90.7748 65.2265 90.9332 67.2288 90.5994C65.8944 93.6713 61.584 97.064 55.9965 97.064Z" fill="black"/>
<path d="M57.6631 92.0645H54.33C53.4096 92.0645 52.6635 92.8107 52.6635 93.7309C52.6635 94.6513 53.4098 95.3974 54.33 95.3974H57.6631C58.5835 95.3974 59.3296 94.6511 59.3296 93.7309C59.3296 92.8105 58.5835 92.0645 57.6631 92.0645Z" fill="black"/>
</g>
<defs>
<filter id="filter0_d" x="0.533354" y="0.400024" width="110.933" height="110.933" filterUnits="userSpaceOnUse" color-interpolation-filters="sRGB">
<feFlood flood-opacity="0" result="BackgroundImageFix"/>
<feColorMatrix in="SourceAlpha" type="matrix" values="0 0 0 0 0 0 0 0 0 0 0 0 0 0 0 0 0 0 127 0"/>
<feOffset dy="2.13333"/>
<feGaussianBlur stdDeviation="1.06667"/>
<feColorMatrix type="matrix" values="0 0 0 0 0 0 0 0 0 0 0 0 0 0 0 0 0 0 0.25 0"/>
<feBlend mode="normal" in2="BackgroundImageFix" result="effect1_dropShadow"/>
<feBlend mode="normal" in="SourceGraphic" in2="effect1_dropShadow" result="shape"/>
</filter>
<filter id="filter1_d" x="0.533354" y="0.403992" width="110.933" height="110.926" filterUnits="userSpaceOnUse" color-interpolation-filters="sRGB">
<feFlood flood-opacity="0" result="BackgroundImageFix"/>
<feColorMatrix in="SourceAlpha" type="matrix" values="0 0 0 0 0 0 0 0 0 0 0 0 0 0 0 0 0 0 127 0"/>
<feOffset dy="2.13333"/>
<feGaussianBlur stdDeviation="1.06667"/>
<feColorMatrix type="matrix" values="0 0 0 0 0 0 0 0 0 0 0 0 0 0 0 0 0 0 0.25 0"/>
<feBlend mode="normal" in2="BackgroundImageFix" result="effect1_dropShadow"/>
<feBlend mode="normal" in="SourceGraphic" in2="effect1_dropShadow" result="shape"/>
</filter>
<clipPath id="clip0">
<rect width="106.667" height="106.667" fill="white" transform="translate(2.66669 0.400024)"/>
</clipPath>
</defs>
</svg>
