<svg width="67" height="67" viewBox="0 0 67 67" fill="none" xmlns="http://www.w3.org/2000/svg">
<g clip-path="url(#clip0)">
<path d="M0.268799 33.0817C0.268799 14.8524 15.0455 0.0771179 33.2729 0.0771179C51.5012 0.0771179 66.278 14.8525 66.278 33.0817C66.278 51.309 51.5012 66.0858 33.2729 66.0858C15.0455 66.0858 0.268799 51.309 0.268799 33.0817Z" fill="#E04F5F"/>
<path d="M18.5767 37.2755C18.5767 29.158 25.1565 22.5793 33.2731 22.5793C41.3888 22.5793 47.9692 29.158 47.9692 37.2755C47.9692 45.3921 41.3888 51.9718 33.2731 51.9718C25.1565 51.9718 18.5767 45.3921 18.5767 37.2755Z" fill="white"/>
<path d="M41.8015 16.2245L40.6548 17.4599H41.4264C41.7989 17.4599 42.1011 17.1577 42.1011 16.7852C42.1011 16.5514 41.9826 16.3448 41.8015 16.2245Z" fill="white"/>
<path d="M41.4267 16.1104H40.6069L39.3538 17.4601H40.6552L41.8019 16.2247C41.6947 16.1524 41.5655 16.1104 41.4267 16.1104Z" fill="white"/>
<path d="M32.804 20.2782C32.4314 20.2782 32.1292 19.975 32.1292 19.6034V19.4311C32.1274 18.0717 32.1266 16.788 32.9595 15.9531C33.4807 15.432 34.2389 15.1791 35.2784 15.1791H41.4268C41.7993 15.1791 42.1016 15.4812 42.1016 15.8539C42.1016 16.2264 41.7993 16.5287 41.4268 16.5287H35.2784C34.6151 16.5287 34.1695 16.6525 33.9148 16.9065C33.4763 17.3459 33.4771 18.3117 33.4789 19.4302V19.6034C33.4788 19.9748 33.1765 20.2782 32.804 20.2782Z" fill="white"/>
<path d="M37.3776 23.5636C37.3776 24.7849 28.5301 24.7849 28.5301 23.5636V21.0056C28.5301 19.7833 29.5203 18.793 30.7418 18.793H35.166C36.3874 18.793 37.3776 19.7833 37.3776 21.0056V23.5636Z" fill="white"/>
<path d="M43.4581 13.7783L42.856 15.5541L43.9765 17.0559L42.103 17.0321L41.0206 18.5619L40.4643 16.7729L38.6744 16.2157L40.2051 15.1342L40.1813 13.2599L41.6831 14.3803L43.4581 13.7783Z" fill="white"/>
</g>
<defs>
<clipPath id="clip0">
<rect width="66.0092" height="66.0092" fill="white" transform="translate(0.268799 0.0768738)"/>
</clipPath>
</defs>
</svg>
