<svg width="68" height="68" viewBox="0 0 68 68" fill="none" xmlns="http://www.w3.org/2000/svg">
<g clip-path="url(#clip0)">
<path d="M65.8378 7.46405H23.8136C22.7706 7.46405 21.9181 8.31734 21.9181 9.35961V11.7298H15.2822C14.2392 11.7298 13.3866 12.5831 13.3866 13.6253V15.8345H7.5374C6.49514 15.8345 5.64185 16.6878 5.64185 17.73V54.7012C5.64185 55.753 6.49514 56.597 7.5374 56.597H13.3864V58.8149C13.3864 59.8579 14.2397 60.7108 15.2819 60.7108H21.9178V63.0809C21.9178 64.1239 22.7711 64.9767 23.8134 64.9767H65.8378C66.8896 64.9767 67.7336 64.1234 67.7336 63.0809V9.35887C67.7333 8.31661 66.8896 7.46405 65.8378 7.46405Z" fill="#4EFFBB"/>
<path d="M62.6259 4.25234V57.9744C62.6259 59.0167 61.7822 59.8702 60.7301 59.8702H18.706C17.6637 59.8702 16.8104 59.0169 16.8104 57.9744V55.6042H10.1745C9.13224 55.6042 8.27894 54.7509 8.27894 53.7084V51.4897H2.429C1.38674 51.4897 0.533447 50.646 0.533447 49.5942V12.6228C0.533447 11.5798 1.38674 10.7272 2.429 10.7272H8.27796V8.51808C8.27796 7.47581 9.13126 6.62252 10.1735 6.62252H16.8094V4.25234C16.8094 3.20934 17.6627 2.35678 18.705 2.35678H60.7291C61.7822 2.3558 62.6259 3.2091 62.6259 4.25234ZM58.8338 56.0779V6.1479H20.6018V56.0779H58.8338ZM16.8104 51.8119V10.4139H12.0708V51.8121H16.8104V51.8119ZM8.2787 47.6977V14.5186H4.32554V47.6977H8.2787Z" fill="#222051"/>
<path d="M16.8094 10.4139H12.0698V51.8121H16.8094V10.4139Z" fill="#302C58"/>
<path d="M8.27835 14.5186H4.3252V47.6977H8.27835V14.5186Z" fill="#302C58"/>
<path d="M20.6016 6.14792V56.0779H58.8336V6.14792H20.6016ZM22.8944 11.7173C22.8944 10.6707 23.7433 9.82179 24.79 9.82179H39.0093C40.056 9.82179 40.9049 10.6707 40.9049 11.7173V23.0929C40.9049 24.1396 40.056 24.9885 39.0093 24.9885H24.7902C23.7435 24.9885 22.8946 24.1396 22.8946 23.0929C22.8944 23.0929 22.8944 11.7173 22.8944 11.7173ZM54.2957 53.3097H24.6717C23.6251 53.3097 22.7762 52.4608 22.7762 51.4139C22.7762 50.3672 23.6251 49.5181 24.6717 49.5181H54.2957C55.3424 49.5181 56.1915 50.367 56.1915 51.4139C56.192 52.4608 55.3431 53.3097 54.2957 53.3097ZM54.2957 46.5942H24.6717C23.6251 46.5942 22.7762 45.7453 22.7762 44.6987C22.7762 43.652 23.6251 42.8029 24.6717 42.8029H54.2957C55.3424 42.8029 56.1915 43.6518 56.1915 44.6987C56.192 45.7453 55.3431 46.5942 54.2957 46.5942ZM54.2957 39.8802H24.6717C23.6251 39.8802 22.7762 39.0313 22.7762 37.9847C22.7762 36.938 23.6251 36.0889 24.6717 36.0889H54.2957C55.3424 36.0889 56.1915 36.9378 56.1915 37.9847C56.192 39.0313 55.3431 39.8802 54.2957 39.8802ZM54.2957 33.165H24.6717C23.6251 33.165 22.7762 32.3161 22.7762 31.2694C22.7762 30.2228 23.6251 29.3739 24.6717 29.3739H54.2957C55.3424 29.3739 56.1915 30.2228 56.1915 31.2694C56.192 32.3161 55.3431 33.165 54.2957 33.165Z" fill="#302C58"/>
</g>
<defs>
<clipPath id="clip0">
<rect width="67.2" height="67.2" fill="white" transform="translate(0.533203 0.0666656)"/>
</clipPath>
</defs>
</svg>
