<svg width="69" height="69" viewBox="0 0 69 69" fill="none" xmlns="http://www.w3.org/2000/svg">
<g clip-path="url(#clip0)">
<path d="M68.3999 34.4665C68.3999 53.0232 53.3567 68.0664 34.8 68.0664C16.2433 68.0664 1.20008 53.0232 1.20008 34.4665C1.20008 15.9098 16.2433 0.866585 34.8 0.866585C53.3567 0.866585 68.3999 15.9098 68.3999 34.4665Z" fill="#FFC50B" stroke="black" stroke-width="1.06667"/>
<path d="M45.8142 16.3333C41.6641 16.3333 37.8088 18.3555 35.4913 21.7456L35.0126 22.3541L34.6936 21.9472C32.4024 18.4309 28.5395 16.3333 24.3469 16.3333C17.1926 16.3333 12 21.5257 12 28.679C12 39.2413 31.1207 54.8074 32.5151 55.928C33.1736 56.5571 34.0344 56.903 34.9485 56.903C35.8626 56.903 36.7238 56.5571 37.3831 55.927C38.7824 54.7989 58.1612 38.9865 58.1612 28.6791C58.1599 21.5257 52.9681 16.3333 45.8142 16.3333Z" fill="#FF0009"/>
</g>
<defs>
<clipPath id="clip0">
<rect width="68.2667" height="68.2667" fill="white" transform="translate(0.666748 0.333252)"/>
</clipPath>
</defs>
</svg>
