<svg width="70" height="69" viewBox="0 0 70 69" fill="none" xmlns="http://www.w3.org/2000/svg">
<g clip-path="url(#clip0)">
<path d="M35.0665 68.9335C53.9179 68.9335 69.1999 53.6514 69.1999 34.8001C69.1999 15.9487 53.9179 0.666687 35.0665 0.666687C16.2151 0.666687 0.933105 15.9487 0.933105 34.8001C0.933105 53.6514 16.2151 68.9335 35.0665 68.9335Z" fill="#71B84F"/>
<path d="M69.0186 38.3902C67.3604 54.2499 54.8438 66.8733 39.0378 68.7054L23.8267 53.4942L46.3055 15.6772L69.0117 38.3834L69.0186 38.3902Z" fill="#63A147"/>
<path d="M46.3122 53.4942C46.3122 54.691 41.2775 55.6606 35.0727 55.6606C28.868 55.6606 23.8333 54.6911 23.8333 53.4942V15.6772H46.3122V53.4942Z" fill="#E84F4F"/>
<path d="M46.3122 53.4942C46.3122 54.691 41.2775 55.6606 35.0728 55.6606V15.6839H46.3122V53.4942Z" fill="#C94545"/>
<path d="M35.0659 13.9455C41.2706 13.9455 46.3054 14.7211 46.3054 15.6839C46.3054 16.6467 41.2706 17.4223 35.0659 17.4223C28.8612 17.4223 23.8264 16.6467 23.8264 15.6839C23.8265 14.7211 28.8612 13.9455 35.0659 13.9455Z" fill="#F7F7F8"/>
<path d="M23.8267 48.6602V47.5637C26.7486 48.5599 30.7067 49.1685 35.0661 49.1685C39.4256 49.1685 43.3837 48.5601 46.3056 47.5637V48.6602C43.3102 49.623 39.3721 50.2114 35.0661 50.2114C30.7602 50.2114 26.8153 49.623 23.8267 48.6602ZM23.8267 21.1866V20.0901C26.7486 21.0863 30.7067 21.6949 35.0661 21.6949C39.4256 21.6949 43.3837 21.0865 46.3056 20.0901V21.1866C43.3102 22.1561 39.3721 22.7378 35.0661 22.7378C30.7602 22.7378 26.8153 22.1494 23.8267 21.1866ZM23.8267 26.6826V25.586C26.7486 26.5823 30.7067 27.1908 35.0661 27.1908C39.4256 27.1908 43.3837 26.5824 46.3056 25.586V26.6826C43.3102 27.6453 39.3721 28.2337 35.0661 28.2337C30.7602 28.2337 26.8153 27.6453 23.8267 26.6826ZM23.8267 32.1786V31.0821C26.7486 32.0784 30.7067 32.6869 35.0661 32.6869C39.4256 32.6869 43.3837 32.0785 46.3056 31.0821V32.1786C43.3102 33.1481 39.3721 33.7298 35.0661 33.7298C30.7602 33.7298 26.8153 33.1416 23.8267 32.1786ZM23.8267 37.6747V36.5782C26.7486 37.5744 30.7067 38.183 35.0661 38.183C39.4256 38.183 43.3837 37.5746 46.3056 36.5782V37.6747C43.3102 38.6442 39.3721 39.2259 35.0661 39.2259C30.7602 39.2259 26.8153 38.6375 23.8267 37.6747ZM23.8267 43.1708V42.0743C26.7486 43.0705 30.7067 43.6791 35.0661 43.6791C39.4256 43.6791 43.3837 43.0707 46.3056 42.0743V43.1708C43.3102 44.1403 39.3721 44.722 35.0661 44.722C30.7602 44.722 26.8153 44.1336 23.8267 43.1708Z" fill="#993232"/>
<path d="M35.0659 49.1682C39.4252 49.1682 43.3834 48.5598 46.3054 47.5634V48.66C43.31 49.6227 39.3719 50.2111 35.0659 50.2111V49.1682ZM35.0659 44.722V43.6789C39.4252 43.6789 43.3834 43.0705 46.3054 42.0742V43.1707C43.3101 44.1403 39.3719 44.722 35.0659 44.722ZM35.0659 39.2259V38.1829C39.4252 38.1829 43.3834 37.5745 46.3054 36.5781V37.6746C43.3101 38.6442 39.3719 39.2259 35.0659 39.2259ZM35.0659 33.73V32.6869C39.4252 32.6869 43.3834 32.0785 46.3054 31.0821V32.1786C43.3101 33.1482 39.3719 33.73 35.0659 33.73ZM35.0659 28.2338V27.1907C39.4252 27.1907 43.3834 26.5823 46.3054 25.5859V26.6824C43.3101 27.6454 39.3719 28.2338 35.0659 28.2338ZM35.0659 22.7378V21.6948C39.4252 21.6948 43.3834 21.0864 46.3054 20.09V21.1865C43.3101 22.1561 39.3719 22.7378 35.0659 22.7378Z" fill="#782323"/>
<path d="M40.9432 31.6572C45.8775 31.6572 49.8827 35.6622 49.8827 40.6034C49.8827 45.5445 45.8777 49.5496 40.9432 49.5496C36.0087 49.5496 32.0037 45.5445 32.0037 40.6034C32.0037 35.6622 36.0088 31.6572 40.9432 31.6572Z" fill="#F7F7F8"/>
<path d="M42.8488 31.958L42.6348 31.9112C42.5613 31.8978 42.4877 31.8845 42.4141 31.871C37.5934 31.0688 33.0334 34.3182 32.2245 39.139C31.4156 43.9597 34.6717 48.5197 39.4924 49.3286C39.5592 49.3419 39.6328 49.3486 39.6996 49.3621L39.7398 49.3687C39.7999 49.3754 39.8535 49.3821 39.9136 49.3887L39.9604 49.3954C40.0272 49.4021 40.0942 49.4087 40.161 49.4154H40.1944C40.2479 49.4221 40.3082 49.4221 40.3616 49.4287L40.4284 49.4354L40.589 49.4421H40.6291C40.6959 49.4421 40.7628 49.4487 40.8296 49.4487H40.8698H41.0303H41.0904C41.1506 49.4487 41.2175 49.4487 41.2776 49.4421H41.2843C41.3511 49.4421 41.4113 49.4354 41.4781 49.4354H41.5316C41.5851 49.4354 41.6387 49.4287 41.6855 49.4221L41.7323 49.4154C41.7991 49.4087 41.8593 49.4021 41.9261 49.3954L41.9663 49.3887C42.0197 49.3821 42.0667 49.3754 42.1201 49.3687L42.1869 49.3621L42.3207 49.3421L42.3808 49.3354C42.4409 49.3287 42.4945 49.3154 42.5547 49.3019L42.6415 49.2819L42.7419 49.2619L42.8356 49.2419L42.9493 49.2153L43.0497 49.1886C43.0965 49.1753 43.1435 49.1686 43.1901 49.1551L43.2703 49.1351L43.3707 49.1085L43.4575 49.0818C43.5043 49.0685 43.5511 49.0551 43.5979 49.0417L43.6983 49.0082L43.7919 48.9747L43.8856 48.9413L43.9792 48.9078L44.066 48.8743C44.1128 48.8543 44.1664 48.8342 44.2131 48.8209L44.3201 48.7807L44.3869 48.7541L44.4805 48.7139L44.554 48.6805C44.6208 48.6538 44.6877 48.6203 44.7545 48.5869L44.788 48.5669L44.895 48.5134L44.9418 48.4867L45.0489 48.4333L45.0957 48.4066C45.1625 48.3731 45.2294 48.3331 45.2962 48.2995L45.3364 48.2729L45.4501 48.2061L45.4836 48.1861L45.5973 48.1193C45.6441 48.0926 45.6841 48.0658 45.731 48.0392L45.8314 47.9723L45.8716 47.9457L45.9786 47.8722L45.9986 47.8589C46.0721 47.8054 46.1457 47.7518 46.2193 47.6984L46.2393 47.685L46.3397 47.6116L46.3732 47.5849C46.5337 47.4645 46.6808 47.3376 46.8345 47.2038L46.8412 47.1972C47.1085 46.9632 47.3628 46.709 47.5968 46.4416L47.6034 46.4349C47.7372 46.281 47.8708 46.1206 47.9911 45.9601L47.9978 45.9534C48.0916 45.833 48.1783 45.7061 48.2651 45.579C48.9673 44.5493 49.4619 43.3592 49.6827 42.0487C49.7898 41.4001 49.8231 40.7583 49.7965 40.1298C49.7965 40.0696 49.7898 40.016 49.7831 39.9559V39.9292V39.9026V39.8759L49.7698 39.7622V39.7355V39.7088V39.6822V39.6755L49.7565 39.5484L49.7498 39.4883L49.7431 39.4616L49.7365 39.435L49.7231 39.3482L49.7165 39.3215L49.7098 39.2948L49.7031 39.2414L49.6965 39.2147L49.6831 39.1412L49.6631 39.0208L49.6565 38.9942L49.6431 38.9407L49.6165 38.807L49.6098 38.7803L49.6031 38.7468C49.5898 38.6934 49.5765 38.6331 49.563 38.5796L49.5563 38.5462C49.1017 36.6607 48.0386 34.9758 46.5476 33.7521C46.5008 33.7186 46.4608 33.6786 46.4138 33.645L46.3872 33.625C46.3404 33.5916 46.2936 33.5516 46.2468 33.518L46.2066 33.4845C46.1598 33.451 46.113 33.4177 46.0662 33.3841L46.0328 33.3641C45.986 33.3306 45.9392 33.2973 45.8924 33.2705L45.8522 33.2438C45.8054 33.2104 45.7586 33.1837 45.7118 33.1502L45.6784 33.1302C45.6249 33.0968 45.5713 33.0634 45.5178 33.0298L45.5112 33.0232H45.5045L45.4845 33.0098C45.431 32.9764 45.3774 32.9497 45.324 32.9162L45.3173 32.9096L45.304 32.9029C45.2505 32.8694 45.1969 32.8428 45.1368 32.8161L45.1101 32.8028C45.0566 32.7761 45.003 32.7426 44.9429 32.716L44.9162 32.7026C44.8628 32.676 44.8025 32.6492 44.749 32.6225L44.729 32.6158C44.6689 32.5892 44.6086 32.5624 44.5485 32.529L44.5352 32.5224C44.4751 32.4957 44.4081 32.4689 44.348 32.4422L44.3413 32.4356C44.2812 32.4089 44.2143 32.3821 44.1541 32.3621L44.1341 32.3554C44.074 32.3288 44.0071 32.3086 43.9403 32.282L43.9336 32.2753C43.8668 32.2486 43.7999 32.2285 43.7331 32.2085H43.7264C43.6596 32.1885 43.586 32.1617 43.5192 32.1417C43.4524 32.1217 43.3788 32.1016 43.312 32.0816H43.3053C43.2385 32.0616 43.1649 32.0414 43.0913 32.0281H43.0847C43.0112 32.0081 42.9443 31.9946 42.8707 31.9813H42.864H42.8573L42.8488 31.958ZM56.7628 61.1633C55.0311 62.5942 53.1523 63.8511 51.1531 64.9209L46.3524 56.5899C46.0714 56.1017 46.232 55.4732 46.7201 55.1925L47.148 54.9452L45.5968 52.2842C43.5308 53.1066 41.224 53.394 38.8771 52.9996C32.0304 51.8563 27.4103 45.3773 28.5536 38.5375C29.6969 31.6908 36.1759 27.0707 43.0157 28.214C49.8625 29.3573 54.4826 35.8363 53.3392 42.6761C52.8043 45.8588 51.1261 48.5533 48.7926 50.4187L50.3438 53.0798L50.7783 52.8258C51.2664 52.5448 51.895 52.7054 52.1756 53.1935L56.7628 61.1633ZM35.1397 39.0254V39.0387C35.0862 39.3798 34.7719 39.6138 34.4442 39.5603C34.1633 39.5135 33.9628 39.266 33.9494 38.9852H33.9294C33.9428 38.8715 33.9629 38.7512 33.9762 38.6308C34.6181 34.7929 38.2487 32.2054 42.0865 32.8473C42.1936 32.8673 42.3005 32.8874 42.4008 32.9074C42.4208 32.9074 42.4476 32.9141 42.4676 32.9141C42.8153 32.9742 43.0493 33.2885 42.9892 33.6229C42.9357 33.9573 42.6081 34.1845 42.2671 34.1244L42.2471 34.1177L42.2404 34.131C42.12 34.1044 41.9997 34.0776 41.8793 34.0576C38.7167 33.5293 35.7214 35.6623 35.1931 38.8248C35.1798 38.8916 35.1731 38.9519 35.1665 39.0187H35.1398V39.0255H35.1397V39.0254Z" fill="#FFD630"/>
<path d="M50.8654 52.7789L47.1479 54.9386L46.72 55.1859C46.2319 55.4668 46.0715 56.0952 46.3523 56.5832L51.153 64.9142C53.1522 63.8444 55.031 62.5874 56.7627 61.1567L52.176 53.1934C51.9153 52.7387 51.3401 52.5649 50.8654 52.7789Z" fill="#E84F4F"/>
<path d="M50.3439 53.073L50.7785 52.819C51.2666 52.5381 51.8951 52.6986 52.1758 53.1867L56.7625 61.15C55.9134 61.8521 55.0308 62.514 54.1082 63.1292L48.8862 53.9157L50.3438 53.0665V53.0731H50.3439V53.073Z" fill="#C94545"/>
</g>
<defs>
<clipPath id="clip0">
<rect width="68.2667" height="68.2667" fill="white" transform="translate(0.933105 0.666687)"/>
</clipPath>
</defs>
</svg>
