<svg width="69" height="70" viewBox="0 0 69 70" fill="none" xmlns="http://www.w3.org/2000/svg">
<g clip-path="url(#clip0)">
<path d="M63.6281 63.6477C62.9858 51.4468 52.0202 46.3996 52.0202 46.3996C49.4003 45.1745 44.6503 42.7765 41.536 41.1913C45.526 36.826 46.7045 29.7088 46.888 28.6961C47.7207 24.1137 47.3017 18.442 47.3017 18.442C46.5402 7.41278 35.4048 7.23955 34.2387 7.25115C34.1744 7.25115 34.1325 7.25182 34.1325 7.25182C34.1325 7.25182 34.0969 7.25115 34.0442 7.25182C32.9869 7.2381 21.7289 7.34976 20.9634 18.442C20.9634 18.442 20.5443 24.113 21.377 28.6961C21.4311 28.9912 21.5722 29.8135 21.8399 30.9255C23.9374 33.679 27.1754 35.0292 29.8331 35.69C30.1673 35.3654 30.6226 35.1634 31.1272 35.1634H35.9712C36.9963 35.1634 37.8262 35.994 37.8262 37.0191C37.8262 38.0449 36.9963 38.8762 35.9712 38.8762H31.1272C30.3623 38.8762 29.7085 38.4147 29.4229 37.7566C27.4406 37.2745 25.1466 36.435 23.0992 34.9909C23.916 37.1115 25.0801 39.3863 26.7304 41.192C23.6161 42.7772 18.8681 45.1744 16.2462 46.3996C16.2462 46.3996 5.282 51.4468 4.63827 63.6477C4.63827 63.6477 4.44785 65.6767 8.29277 66.4449C8.29277 66.4449 20.0718 69.1332 34.1339 69.1332C48.1973 69.1332 59.9763 66.4449 59.9763 66.4449C63.8205 65.6767 63.6281 63.6477 63.6281 63.6477Z" fill="white"/>
<path d="M17.1947 32.6513H18.3649V18.9063C18.3677 18.872 18.3758 18.8391 18.3758 18.8042V16.7746C18.3758 13.1563 19.4926 10.2235 21.6955 8.05708C26.2518 3.57401 34.0347 3.63502 34.1661 3.65343C34.2586 3.64662 41.9764 3.53563 46.5532 8.01525C48.7711 10.186 49.8961 13.1324 49.8961 16.7746V18.9206C49.8961 18.9418 49.9016 18.961 49.9016 18.9816V32.6512H51.0718C53.9519 32.6512 56.2862 30.3168 56.2862 27.4375V22.4265C56.2862 20.11 54.7736 18.1489 52.6823 17.4702V16.7752C52.6823 12.3558 51.2752 8.73897 48.5027 6.02458C43.0974 0.734355 34.4634 0.871335 34.1614 0.867207C33.7985 0.86375 25.1562 0.757668 19.7536 6.0576C16.9906 8.7692 15.5889 12.3751 15.5889 16.7746V17.4669C13.495 18.1454 11.981 20.108 11.981 22.4258V27.4368C11.9811 30.317 14.316 32.6513 17.1947 32.6513Z" fill="white"/>
</g>
<defs>
<clipPath id="clip0">
<rect width="68.2667" height="68.2667" fill="white" transform="translate(0 0.866669)"/>
</clipPath>
</defs>
</svg>
