<svg width="69" height="69" viewBox="0 0 69 69" fill="none" xmlns="http://www.w3.org/2000/svg">
<g clip-path="url(#clip0)">
<path d="M58.7803 61.5465L66.577 47.6859C66.9631 46.9992 67.1501 46.0969 67.1402 45.1968H21.2351L11.8713 63.2477C12.6337 63.7316 13.5139 64.0347 14.3189 64.0347H54.5248C56.0952 64.0347 58.0099 62.9152 58.7803 61.5465Z" fill="#0084FF"/>
<path d="M33.0085 22.5912L23.6427 5.88934C22.8628 6.33414 22.1788 6.94681 21.7785 7.62094L2.3244 40.3858C1.5224 41.7363 1.44107 43.9907 2.1436 45.3955L10.186 61.481C10.5287 62.1658 11.1469 62.7884 11.8717 63.2483L33.0085 22.5912Z" fill="#1EB615"/>
<path d="M45.6068 45.1968H67.14C67.1303 44.3023 66.926 43.4101 66.5289 42.7355L45.8765 7.62521C45.0796 6.27228 43.1439 5.16548 41.5737 5.16548H26.0924C25.3052 5.16548 24.4249 5.44308 23.6416 5.89001L45.6068 45.1968Z" fill="#FFAF00"/>
<path d="M68.5328 45.1814C68.5328 45.1814 68.5328 45.1813 68.5328 45.1812C68.52 44.0068 68.2346 42.8874 67.7296 42.0292L47.0768 6.91813C46.0378 5.15413 43.6204 3.77226 41.5738 3.77226H26.0924C25.0927 3.77226 23.9772 4.09466 22.9514 4.67986C22.95 4.68066 22.9487 4.68173 22.9475 4.6824C21.9283 5.2648 21.088 6.05559 20.581 6.90959L1.12672 39.6745C0.0740547 41.4472 -0.0243453 44.1745 0.897654 46.0185L8.94019 62.1044C9.38165 62.9864 10.1577 63.8104 11.1253 64.4244C11.1265 64.425 11.1279 64.4256 11.129 64.4265C12.1481 65.0722 13.2804 65.4277 14.3187 65.4277H54.5246C56.5822 65.4277 58.9847 64.0229 59.9942 62.2293L67.7908 48.3686C68.2823 47.4949 68.5459 46.363 68.5328 45.1816C68.5328 45.1816 68.5328 45.1816 68.5328 45.1814ZM26.0924 6.55853H41.5738C42.6506 6.55853 44.1294 7.40399 44.6759 8.33159L65.3286 43.4418C65.3926 43.5506 65.4499 43.6721 65.5003 43.8036H46.424L25.6359 6.60333C25.7956 6.57386 25.9488 6.55853 26.0924 6.55853ZM43.2324 43.8037H23.551L33.0366 25.5579L43.2324 43.8037ZM3.38979 44.7725C2.89925 43.7918 2.96272 42.0398 3.52245 41.097L22.9766 8.33226C23.0435 8.21946 23.1262 8.10599 23.2216 7.99399L31.4096 22.6465L11.4894 60.9638C11.4689 60.9286 11.4498 60.8932 11.4322 60.858L3.38979 44.7725ZM65.3624 47.0028L57.5659 60.8632C57.0419 61.7938 55.5924 62.6416 54.5246 62.6416H14.3187C14.1531 62.6416 13.975 62.6174 13.7916 62.5754L22.1022 46.5897H65.5443C65.4927 46.7406 65.4319 46.8794 65.3624 47.0028Z" fill="black"/>
<path d="M53.8118 52.3909H54.4355C55.2047 52.3909 55.8286 51.7672 55.8286 50.9979C55.8286 50.2284 55.2047 49.6048 54.4355 49.6048H53.8118C53.0426 49.6048 52.4187 50.2285 52.4187 50.9979C52.4187 51.7672 53.0426 52.3909 53.8118 52.3909Z" fill="black"/>
<path d="M35.7742 49.6048C35.005 49.6048 34.3811 50.2285 34.3811 50.9979C34.3811 51.7672 35.005 52.3909 35.7742 52.3909H49.3052C50.0744 52.3909 50.6983 51.7672 50.6983 50.9979C50.6983 50.2284 50.0744 49.6048 49.3052 49.6048H35.7742Z" fill="black"/>
</g>
<defs>
<clipPath id="clip0">
<rect width="68.2667" height="68.2667" fill="white" transform="translate(0.266846 0.466675)"/>
</clipPath>
</defs>
</svg>
