<svg width="69" height="70" viewBox="0 0 69 70" fill="none" xmlns="http://www.w3.org/2000/svg">
<g clip-path="url(#clip0)">
<path d="M4.89819 0.874878V50.9881L23.349 69.2111H64.1229V0.874878H4.89819Z" fill="white"/>
<path d="M64.1229 69.2111V0.874878H4.89819" fill="#E9F4F3"/>
<path d="M64.1229 32.7651V0.874878H4.89819" fill="#D4E8E5"/>
<path d="M41.3441 69.325L23.1211 50.9881V69.2111H41.3441V69.325Z" fill="#D6E5E3"/>
<path d="M4.89819 50.9881L23.1212 69.6667V50.9881H4.89819Z" fill="#8AC4BD"/>
<path d="M11.8459 58.1634L23.1214 69.6667V50.9881L13.6682 59.7579L11.8459 58.1634Z" fill="#67A59C"/>
<path d="M54.8978 48.8242L43.2806 49.7353L31.7773 48.8242L43.2806 26.0454L54.8978 48.8242Z" fill="#1589AD"/>
<path d="M43.2808 26.0454L54.8979 48.8242L43.2808 49.7353" fill="#035670"/>
<path d="M43.2804 45.6351L49.8862 39.0293L46.2416 31.7401L43.2804 28.7789L40.4331 31.7401L36.6746 39.0293L43.2804 45.6351Z" fill="#1EA4C4"/>
<path d="M43.2808 45.6351L49.8866 39.0293L46.242 31.7401L43.2808 28.7789" fill="#066B93"/>
<path d="M48.2921 48.2546L31.2081 49.7352L14.124 48.2546L31.2081 14.7699L48.2921 48.2546Z" fill="#1589AD"/>
<path d="M31.2078 14.7699L48.2918 48.2546L31.2078 49.7352" fill="#057091"/>
<path d="M31.2075 43.6989L40.8884 34.0179L35.4215 23.198L31.2075 18.8701L26.9934 23.198L21.4126 34.0179L31.2075 43.6989Z" fill="#1EA4C4"/>
<path d="M31.2078 43.6989L40.8887 34.0179L35.4218 23.198L31.2078 18.8701" fill="#1290AD"/>
<path d="M33.9411 31.3983L36.7885 34.2457L39.6358 31.3983L31.2077 14.7699L22.7795 31.3983L25.6269 34.2457L28.4742 31.3983L31.2077 34.2457L33.9411 31.3983Z" fill="#9ADFEF"/>
<path d="M31.2078 34.2457L33.9412 31.3983L36.7886 34.2457L39.6359 31.3983L31.2078 14.7699" fill="#7DD4E2"/>
<path d="M55.0115 47.5713H14.0098V49.8492H55.0115V47.5713Z" fill="#057091"/>
<path d="M49.8867 25.5898C52.8431 25.5898 55.2397 23.1932 55.2397 20.2368C55.2397 17.2804 52.8431 14.8838 49.8867 14.8838C46.9303 14.8838 44.5337 17.2804 44.5337 20.2368C44.5337 23.1932 46.9303 25.5898 49.8867 25.5898Z" fill="#F98D2B"/>
<path d="M53.7588 16.3644C55.8089 18.4145 55.8089 21.8313 53.7588 23.9953C51.7087 26.1593 48.2919 26.0454 46.1279 23.9953" fill="#DD6E12"/>
</g>
<defs>
<clipPath id="clip0">
<rect width="68.7918" height="68.7918" fill="white" transform="translate(0.11499 0.874878)"/>
</clipPath>
</defs>
</svg>
