<svg width="97" height="96" viewBox="0 0 97 96" fill="none" xmlns="http://www.w3.org/2000/svg">
<g clip-path="url(#clip0)">
<path d="M35.586 72.6445L35.5022 72.6051C34.6939 72.2252 33.8929 71.8392 33.3594 71.5725L33.1431 71.4644L33.1309 71.2228C32.9175 67.0358 31.2107 64.7918 29.8395 62.9892C29.2069 62.1559 28.6093 61.3692 28.246 60.4943L28.1113 60.1703L28.4087 59.9841C33.2858 56.9266 37.9718 56.6819 43.5907 56.6796L44.0788 56.6795L44.0001 57.1613C43.5433 59.9534 42.0332 62.7839 40.5729 65.521C39.2921 67.9182 38.0828 70.182 37.6614 72.3109L37.5953 72.6448H35.586V72.6445Z" fill="#A86439"/>
<path d="M43.5909 57.0937C43.1472 59.8056 41.6585 62.6048 40.2071 65.3253C38.9156 67.7429 37.6859 70.0506 37.2547 72.2297H35.6788C34.9119 71.8692 34.0966 71.4771 33.5452 71.2013C33.3256 66.8907 31.586 64.5994 30.1698 62.7378C29.529 61.8938 28.9693 61.1534 28.6292 60.3346C33.3521 57.3738 37.8391 57.0959 43.5909 57.0937Z" fill="#A86439"/>
<path d="M80.4967 72.6445L74.166 67.8962C74.0501 67.8094 73.92 67.7459 73.7796 67.7078C66.9373 65.8596 64.7295 57.3008 64.6386 56.9373C64.6249 56.8778 64.6061 56.8214 64.5818 56.7627L64.4629 56.4788L64.6999 56.2829C67.5038 53.9658 69.5955 51.31 70.9164 48.389L70.9952 48.2148L71.1789 48.1615C71.9385 47.9414 73.0539 47.5505 74.055 46.9373L74.4964 46.6668L74.6642 47.1565C75.3669 49.2085 75.6965 53.755 75.659 57.1853C75.6559 57.4538 75.7492 57.7165 75.921 57.9246C78.4048 60.9325 80.1213 64.3324 81.636 67.3321C82.5123 69.0662 83.3402 70.7046 84.2083 71.9987L84.6416 72.6445H80.4967Z" fill="#A86439"/>
<path d="M83.8633 72.2297H80.6349L74.4146 67.5646C74.2571 67.4466 74.0788 67.3594 73.8879 67.3077C67.2176 65.5058 65.0614 56.9196 65.0406 56.8368C65.0218 56.7558 64.995 56.6768 64.9639 56.6024C67.2549 54.7092 69.7142 52.0531 71.294 48.5596C72.0819 48.3312 73.2328 47.927 74.2713 47.2906C74.9265 49.2042 75.2835 53.5711 75.2437 57.1806C75.2396 57.5478 75.366 57.9042 75.6003 58.1883C78.047 61.1511 79.7576 64.5333 81.2649 67.5188C82.1651 69.3001 82.9882 70.9255 83.8633 72.2297Z" fill="#A86439"/>
<path d="M51.4323 72.6445C50.9818 72.6445 50.5571 72.4694 50.2361 72.151C49.916 71.8309 49.7402 71.4064 49.7402 70.9545V67.1496C49.7402 66.9327 49.679 66.7225 49.5632 66.5419C42.7918 55.8563 49.1792 48.3164 49.4546 48.0005C49.8697 47.5295 49.8251 46.8082 49.3567 46.3913C49.1488 46.2074 48.8801 46.1056 48.6009 46.1056C48.2743 46.1056 47.9628 46.2455 47.7467 46.4894C47.664 46.5826 45.7162 48.8028 44.7358 52.5561C44.6051 53.059 44.4963 53.5786 44.4122 54.0995L44.3398 54.5465L43.9009 54.4351C43.8022 54.4101 43.7115 54.398 43.6232 54.398C35.9274 54.398 29.9393 54.8956 22.9457 61.336C18.831 65.1235 12.304 67.6679 8.78948 67.6679C8.16061 67.6679 7.64911 68.1794 7.64911 68.8082V72.6441H6.24474L3.49243 65.7662L6.27774 62.9809C6.40899 62.8497 6.50743 62.6858 6.56236 62.5071C8.94905 54.7116 16.4916 33.6699 22.6466 29.9778C25.0804 28.517 32.1356 26.4796 38.0964 26.4796C39.4522 26.4796 40.6785 26.5873 41.741 26.8001C43.3258 27.1171 44.8224 27.278 46.1891 27.278C49.8084 27.278 52.0846 26.2046 54.2863 25.1666C56.1847 24.2726 57.819 23.5035 60.2105 23.5035C62.063 23.5035 63.4038 24.3946 64.7007 25.2564C65.8662 26.0287 67.0617 26.8211 68.5042 26.8211C70.313 26.8211 71.5942 26.3469 72.7246 25.9282C73.2884 25.7206 73.8706 25.5063 74.5137 25.3593L74.9547 25.2588L75.017 25.707C75.1895 26.9512 75.8103 27.9123 75.8365 27.9526C76.0499 28.2866 76.4114 28.484 76.8061 28.484C77.0234 28.484 77.234 28.4221 77.4147 28.3057C77.9453 27.9652 78.1012 27.2604 77.7637 26.7341C77.5479 26.3846 77.059 25.3263 77.3373 24.564C77.5139 24.084 78.0097 23.7084 78.8112 23.4474C78.998 23.3865 79.1639 23.3566 79.3184 23.3566C79.6675 23.3566 79.882 23.513 80.0127 23.6304C80.5319 24.0939 80.7526 24.9956 80.6705 25.3884C80.5152 26.0137 80.8878 26.6347 81.4975 26.7879C81.5877 26.81 81.6809 26.8216 81.7733 26.8216C82.1506 26.8216 82.5023 26.6353 82.7142 26.3227L82.9156 26.0263L83.2381 26.1823C89.1237 29.0283 89.3416 31.6346 89.4859 33.359C89.5088 33.6198 89.5291 33.8493 89.5619 34.0743C89.6159 34.4334 89.7805 35.528 93.3873 37.6629L93.6726 37.8316L92.7505 40.6846L92.5238 40.739C91.7824 40.9162 90.4666 41.1275 88.4091 41.1275C87.1186 41.1275 84.7167 41.1275 83.0405 42.676L82.9212 42.7861H76.7358C75.3918 42.7861 74.224 41.8289 73.9591 40.5102L73.271 37.0679C73.1649 36.5369 72.6955 36.1516 72.1548 36.1516C72.08 36.1516 72.004 36.1591 71.9296 36.1737C71.6305 36.2334 71.3727 36.4062 71.204 36.6599C71.0354 36.9131 70.976 37.2164 71.0358 37.5138L71.7245 40.9585C71.9542 42.1085 72.584 43.1545 73.4969 43.904L73.8787 44.2175L73.5039 44.5392C72.7773 45.163 71.302 45.8174 69.9164 46.1304C69.5493 46.2125 69.2459 46.4699 69.1042 46.8187C66.1531 54.1514 58.4323 57.6608 58.1051 57.8067C57.7243 57.9711 57.4631 58.3238 57.4192 58.7292L55.8729 72.6428H51.4327V72.6445H51.4323Z" fill="#C97743"/>
<path d="M93.1767 38.0204L92.4283 40.3364C91.7523 40.4979 90.4668 40.7137 88.4099 40.7137C87.1141 40.7137 84.5555 40.7137 82.7598 42.3725H76.7366C75.59 42.3725 74.5927 41.5557 74.3664 40.4298L73.6783 36.9877C73.5101 36.1458 72.6913 35.6007 71.8496 35.7686C71.0077 35.9366 70.4604 36.7556 70.6305 37.5972L71.3188 41.041C71.5757 42.3265 72.2726 43.436 73.2345 44.2259C72.5899 44.7796 71.1943 45.4182 69.8259 45.727C69.3262 45.839 68.9135 46.1894 68.7208 46.6642C65.7952 53.9339 58.0116 57.3963 57.9369 57.4294C57.4228 57.6513 57.0683 58.1303 57.0081 58.6861L55.5028 72.2295H51.4326C51.0904 72.2295 50.7711 72.0968 50.5286 71.8564C50.2881 71.6159 50.1555 71.2945 50.1555 70.9545V67.1496C50.1555 66.8552 50.0726 66.5671 49.9129 66.3182C43.3131 55.9036 49.4856 48.5965 49.7678 48.2731C50.3338 47.6303 50.2736 46.6518 49.6331 46.0816C48.9902 45.5135 48.0073 45.5716 47.4371 46.2143C47.3524 46.3098 45.3388 48.6091 44.3353 52.4511C44.2092 52.9385 44.0948 53.4693 44.0037 54.0333C43.8814 54.0023 43.7548 53.9836 43.6242 53.9836C35.8343 53.9836 29.7694 54.4895 22.6658 61.0311C18.6226 64.753 12.226 67.2535 8.79047 67.2535C7.9321 67.2535 7.23535 67.9502 7.23535 68.8086V72.2297H6.52623L3.97998 65.8666L6.57179 63.2747C6.75216 63.0944 6.88491 62.8726 6.95954 62.6299C9.33366 54.8755 16.8186 33.9584 22.8606 30.3341C25.8837 28.5198 35.67 26.0088 41.6605 27.2073C48.169 28.5095 51.5134 26.9336 54.4639 25.5423C56.3134 24.6718 57.9099 23.9188 60.2115 23.9188C61.9367 23.9188 63.1682 24.7357 64.4724 25.6023C65.6833 26.4048 66.9335 27.2362 68.5052 27.2362C70.3817 27.2362 71.7045 26.7489 72.8698 26.3176C73.461 26.0999 74.0081 25.9008 74.6073 25.7639C74.7838 27.035 75.389 28.0241 75.4908 28.1795C75.7873 28.6438 76.293 28.8989 76.8075 28.8989C77.0936 28.8989 77.3838 28.8202 77.6409 28.6543C78.3645 28.1898 78.5782 27.2338 78.1136 26.5102C77.9 26.1639 77.5226 25.2684 77.7281 24.7064C77.8895 24.267 78.4764 23.9932 78.941 23.8419C79.4055 23.6906 79.5961 23.8126 79.7372 23.9394C80.1622 24.3189 80.3135 25.0754 80.2659 25.3036C80.0585 26.1371 80.5648 26.981 81.398 27.1904C82.0492 27.3523 82.7045 27.0785 83.0591 26.5559C88.7234 29.2949 88.9351 31.7334 89.0741 33.3939C89.0968 33.6509 89.1176 33.8915 89.1528 34.1341C89.2226 34.6032 89.3968 35.7832 93.1767 38.0204Z" fill="#C97743"/>
<path d="M95.7894 35.9281C96.4445 36.2849 96.7535 37.0604 96.5255 37.7716L95.1425 42.0554C95.0118 42.4638 94.7175 42.7977 94.3318 42.9822C94.0353 43.1232 92.3621 43.8241 88.41 43.8241C87.3214 43.8241 85.4989 43.8241 84.6529 44.894C84.3585 45.2673 83.9085 45.4829 83.4337 45.4829H76.8694C78.2233 48.3899 78.3561 54.4259 78.3561 56.6504C80.8359 59.773 82.6067 63.277 84.0414 66.1176C85.5613 69.1219 87.1329 72.2299 88.4102 72.2299H90.069C90.9273 72.2299 91.6241 72.9267 91.6241 73.785C91.6241 74.6455 90.9273 75.3402 90.069 75.3402H80.1165C79.7807 75.3402 79.4529 75.2325 79.1835 75.0291L72.7787 70.2272C65.9882 68.2139 63.1433 61.1806 62.3016 58.5496C61.3665 59.155 60.564 59.5966 60.0042 59.8849L58.6315 72.2301H60.2113C61.0697 72.2301 61.7665 72.9269 61.7665 73.7852C61.7665 74.6457 61.0697 75.3404 60.2113 75.3404H51.4324C50.2609 75.3404 49.1579 74.8844 48.3306 74.0571C47.5013 73.2278 47.0451 72.1266 47.0451 70.9553V67.5962C46.0769 66.0121 45.3677 64.4839 44.8639 63.0306C44.2626 64.3308 43.5906 65.5893 42.9501 66.7898C41.9031 68.7533 40.8994 70.636 40.4496 72.2303H43.624C44.4824 72.2303 45.1791 72.9271 45.1791 73.7854C45.1791 74.6459 44.4824 75.3405 43.624 75.3405H35.3303C35.1023 75.3405 34.8762 75.291 34.6709 75.1934C34.6709 75.1934 33.8309 74.8015 32.9935 74.3952C32.4998 74.1567 32.1061 73.9598 31.8177 73.8126C31.2123 73.4993 30.4576 73.1115 30.4576 72.1266C30.4576 68.2577 29.114 66.4909 27.6937 64.6188C27.1193 63.8641 26.5325 63.0865 26.068 62.1908C25.6407 62.5433 25.2097 62.9164 24.7722 63.3188C21.4503 66.3771 15.2966 69.6552 10.3453 70.2647V72.2301H10.4489C11.3073 72.2301 12.0041 72.9269 12.0041 73.7852C12.0041 74.6457 11.3073 75.3404 10.4489 75.3404H5.4727C4.83614 75.3404 4.26595 74.9549 4.02951 74.3639L0.711895 66.0694C0.479583 65.491 0.616458 64.8316 1.05614 64.3921L4.10189 61.3463C4.59764 59.7704 6.62957 53.4528 9.3725 46.7699C13.6977 36.2309 17.6973 29.8033 21.2594 27.6652C25.141 25.337 35.6742 22.8382 42.2695 24.1569C47.7724 25.2579 50.3787 24.0283 53.1385 22.7283C55.1413 21.7846 57.2128 20.8081 60.211 20.8081C62.8753 20.8081 64.7145 22.0295 66.1907 23.0101C67.0928 23.6096 67.8722 24.1256 68.5046 24.1256C69.8254 24.1256 70.7378 23.79 71.793 23.4C72.8087 23.0246 73.9408 22.6081 75.4628 22.4962C75.9604 21.8866 76.7443 21.2874 77.9737 20.885C79.4295 20.4103 80.8125 20.6923 81.8698 21.677C82.301 22.0771 82.6307 22.554 82.8733 23.058C91.6335 26.7943 91.9839 30.9101 92.1729 33.1306C92.1832 33.2592 92.1937 33.3772 92.2038 33.4831C92.6336 33.9832 94.2343 35.0801 95.7894 35.9281ZM92.4285 40.3364L93.177 38.0204C89.3972 35.7832 89.223 34.6034 89.1525 34.1349C89.1172 33.8922 89.0962 33.6517 89.0737 33.3946C88.9348 31.7338 88.7233 29.2955 83.0587 26.5567C82.7042 27.0793 82.049 27.3528 81.3977 27.1912C80.5642 26.9818 80.0582 26.1378 80.2656 25.3044C80.3132 25.076 80.1619 24.3195 79.7368 23.9401C79.5958 23.8136 79.4051 23.6913 78.9407 23.8426C78.4762 23.9938 77.8894 24.2677 77.7277 24.7072C77.5224 25.2691 77.8997 26.1646 78.1132 26.5109C78.5777 27.2345 78.3641 28.1906 77.6406 28.655C77.3837 28.8209 77.0932 28.8997 76.8071 28.8997C76.293 28.8997 75.7869 28.6447 75.4905 28.1803C75.3889 28.0248 74.7834 27.0358 74.607 25.7647C74.0078 25.9016 73.4606 26.1005 72.8694 26.3184C71.7041 26.7496 70.3813 27.2369 68.5048 27.2369C66.9332 27.2369 65.683 26.4056 64.4721 25.6031C63.1678 24.7365 61.9365 23.9195 60.2112 23.9195C57.9096 23.9195 56.313 24.6723 54.4635 25.5431C51.513 26.9343 48.1686 28.5101 41.6601 27.2081C35.6697 26.0096 25.8833 28.5206 22.8603 30.3348C16.8181 33.9592 9.33313 54.8761 6.9592 62.6307C6.88457 62.8733 6.75182 63.0951 6.57145 63.2755L3.97926 65.8667L6.52551 72.2299H7.23463V68.8088C7.23463 67.9504 7.93138 67.2537 8.78975 67.2537C12.2255 67.2537 18.622 64.7532 22.6651 61.0313C29.7687 54.4896 35.8336 53.9838 43.6234 53.9838C43.7541 53.9838 43.8805 54.0027 44.0029 54.0335C44.0939 53.4695 44.2083 52.9386 44.3346 52.4513C45.3381 48.6093 47.3517 46.3098 47.4364 46.2145C48.0066 45.5718 48.9895 45.5137 49.6324 46.0818C50.2731 46.652 50.3333 47.6307 49.767 48.2733C49.4851 48.5967 43.3124 55.9038 49.9122 66.3184C50.0719 66.5672 50.1548 66.8554 50.1548 67.1498V70.9547C50.1548 71.2949 50.2875 71.6159 50.5281 71.8566C50.7707 72.0972 51.09 72.2297 51.432 72.2297H55.5023L57.0075 58.6863C57.0677 58.1303 57.4223 57.6516 57.9364 57.4296C58.0108 57.3965 65.7945 53.9341 68.7203 46.6643C68.913 46.1896 69.3257 45.8393 69.8254 45.7272C71.1939 45.4182 72.5893 44.7796 73.2339 44.2261C72.2719 43.4364 71.5751 42.3269 71.3183 41.0412L70.63 37.5974C70.4599 36.7554 71.0074 35.9364 71.8491 35.7687C72.6909 35.6007 73.5099 36.1462 73.6777 36.9879L74.3659 40.43C74.592 41.5559 75.5891 42.3727 76.7361 42.3727H82.7593C84.555 40.7139 87.1136 40.7139 88.4094 40.7139C90.4668 40.7135 91.7525 40.4979 92.4285 40.3364ZM80.6347 72.2297H83.8631C82.9879 70.9255 82.1649 69.3001 81.2651 67.5188C79.7574 64.5333 78.0469 61.1513 75.6006 58.1883C75.3662 57.9042 75.24 57.5476 75.2439 57.1806C75.2833 53.5711 74.9267 49.2042 74.2716 47.2906C73.2328 47.927 72.0819 48.3314 71.2943 48.5596C69.7144 52.0533 67.2551 54.7092 64.9641 56.6024C64.9952 56.6768 65.0222 56.7556 65.0408 56.8368C65.0616 56.9195 67.2178 65.5058 73.8881 67.3077C74.0788 67.3594 74.2571 67.4466 74.4148 67.5646L80.6347 72.2297ZM40.2066 65.3253C41.6581 62.6048 43.147 59.8058 43.5904 57.0936C37.8387 57.0959 33.3518 57.3738 28.6285 60.3346C28.9688 61.1534 29.5283 61.8938 30.1692 62.7378C31.5854 64.5996 33.325 66.8907 33.5446 71.2013C34.0962 71.4771 34.9113 71.8692 35.6781 72.2297H37.2541C37.6855 70.0506 38.9151 67.7429 40.2066 65.3253Z" fill="#3D484A"/>
</g>
<defs>
<clipPath id="clip0">
<rect width="96" height="96" fill="white" transform="translate(0.600098)"/>
</clipPath>
</defs>
</svg>
