<svg width="235" height="66" viewBox="0 0 235 66" fill="none" xmlns="http://www.w3.org/2000/svg">
<g filter="url(#filter0_d)">
<rect x="0.600098" y="0.533333" width="227.2" height="57.6" rx="6.4" fill="#FF0000"/>
</g>
<path d="M47.2826 14.0059H53.3919V36.7579H63.5039V42.0667H47.2826V14.0059ZM77.5491 42.6987C75.3582 42.6987 73.4201 42.2212 71.7347 41.2661C70.0775 40.3111 68.7854 38.9769 67.8585 37.2635C66.9315 35.522 66.4681 33.5136 66.4681 31.2384C66.4681 28.9632 66.9175 26.9689 67.8163 25.2555C68.7433 23.514 70.0354 22.1657 71.6926 21.2107C73.3779 20.2556 75.3161 19.7781 77.507 19.7781C79.6979 19.7781 81.622 20.2556 83.2793 21.2107C84.9646 22.1376 86.2567 23.4578 87.1555 25.1712C88.0825 26.8846 88.5459 28.8649 88.5459 31.112C88.5459 33.3872 88.0825 35.4096 87.1555 37.1792C86.2567 38.9207 84.9646 40.283 83.2793 41.2661C81.622 42.2212 79.712 42.6987 77.5491 42.6987ZM77.507 37.5584C79.0238 37.5584 80.2316 36.9826 81.1305 35.8309C82.0574 34.6512 82.5209 33.1063 82.5209 31.1963C82.5209 29.2862 82.0574 27.7694 81.1305 26.6459C80.2316 25.4942 79.0238 24.9184 77.507 24.9184C75.9902 24.9184 74.7683 25.4942 73.8414 26.6459C72.9426 27.7694 72.4931 29.2862 72.4931 31.1963C72.4931 33.1063 72.9426 34.6512 73.8414 35.8309C74.7683 36.9826 75.9902 37.5584 77.507 37.5584ZM100.397 51.6309C97.8973 51.6309 95.4536 51.3079 93.066 50.6619L94.2036 45.4373C96.9002 46.2238 99.1473 46.6171 100.945 46.6171C102.378 46.6171 103.473 46.3924 104.231 45.9429C105.018 45.4935 105.566 44.7913 105.875 43.8363C106.212 42.8812 106.408 41.5751 106.464 39.9179H106.338C105.552 40.8167 104.639 41.5049 103.599 41.9824C102.56 42.4599 101.422 42.6987 100.187 42.6987C97.7148 42.6987 95.7766 41.7717 94.3722 39.9179C92.9958 38.0359 92.3076 35.4377 92.3076 32.1232C92.3076 28.1065 93.3329 25.0448 95.3834 22.9381C97.462 20.8315 100.425 19.7781 104.274 19.7781C106.493 19.7781 109.133 20.1152 112.195 20.7893C112.251 26.5756 112.279 30.9294 112.279 33.8507C112.279 36.4629 112.265 38.4292 112.237 39.7493C112.181 43.738 111.169 46.7154 109.203 48.6816C107.265 50.6478 104.33 51.6309 100.397 51.6309ZM101.746 37.5163C102.616 37.5163 103.445 37.1932 104.231 36.5472C105.046 35.9012 105.762 34.9883 106.38 33.8085L106.338 25.3397C105.411 25.0869 104.512 24.9605 103.642 24.9605C101.872 24.9605 100.524 25.5364 99.5967 26.688C98.6979 27.8396 98.2484 29.5109 98.2484 31.7019C98.2484 33.5276 98.5434 34.9602 99.1332 35.9995C99.7512 37.0107 100.622 37.5163 101.746 37.5163ZM127.706 42.6987C125.515 42.6987 123.577 42.2212 121.892 41.2661C120.234 40.3111 118.942 38.9769 118.015 37.2635C117.088 35.522 116.625 33.5136 116.625 31.2384C116.625 28.9632 117.074 26.9689 117.973 25.2555C118.9 23.514 120.192 22.1657 121.849 21.2107C123.535 20.2556 125.473 19.7781 127.664 19.7781C129.855 19.7781 131.779 20.2556 133.436 21.2107C135.121 22.1376 136.413 23.4578 137.312 25.1712C138.239 26.8846 138.703 28.8649 138.703 31.112C138.703 33.3872 138.239 35.4096 137.312 37.1792C136.413 38.9207 135.121 40.283 133.436 41.2661C131.779 42.2212 129.869 42.6987 127.706 42.6987ZM127.664 37.5584C129.181 37.5584 130.388 36.9826 131.287 35.8309C132.214 34.6512 132.678 33.1063 132.678 31.1963C132.678 29.2862 132.214 27.7694 131.287 26.6459C130.388 25.4942 129.181 24.9184 127.664 24.9184C126.147 24.9184 124.925 25.4942 123.998 26.6459C123.099 27.7694 122.65 29.2862 122.65 31.1963C122.65 33.1063 123.099 34.6512 123.998 35.8309C124.925 36.9826 126.147 37.5584 127.664 37.5584ZM150.517 42.6565C148.214 42.6565 146.402 41.9543 145.082 40.5499C143.761 39.1454 143.101 37.2213 143.101 34.7776V20.368H149.042V33.8085C149.042 34.9602 149.323 35.859 149.885 36.5051C150.447 37.123 151.205 37.432 152.16 37.432C153.115 37.432 154.028 37.123 154.899 36.5051C155.798 35.8871 156.542 35.0585 157.132 34.0192V20.368H163.073V42.0667H157.132V39.2016C156.317 40.2971 155.376 41.1538 154.309 41.7717C153.27 42.3616 152.006 42.6565 150.517 42.6565ZM176.498 42.6987C174.475 42.6987 172.902 42.1931 171.779 41.1819C170.683 40.1426 170.135 38.682 170.135 36.8V25.4661H166.765V20.368H170.135V15.7333C172.13 15.3963 174.096 15.1435 176.034 14.9749V20.368H181.511V25.4661H176.034V35.7045C176.034 36.2944 176.203 36.7438 176.54 37.0528C176.905 37.3618 177.411 37.5163 178.057 37.5163C178.843 37.5163 179.742 37.3337 180.753 36.9685L182.059 41.4347C180.262 42.2773 178.408 42.6987 176.498 42.6987Z" fill="white"/>
<path d="M47.2826 14.0059V13.4725H46.7493V14.0059H47.2826ZM53.3919 14.0059H53.9253V13.4725H53.3919V14.0059ZM53.3919 36.7579H52.8586V37.2912H53.3919V36.7579ZM63.5039 36.7579H64.0373V36.2245H63.5039V36.7579ZM63.5039 42.0667V42.6H64.0373V42.0667H63.5039ZM47.2826 42.0667H46.7493V42.6H47.2826V42.0667ZM47.2826 14.5392H53.3919V13.4725H47.2826V14.5392ZM52.8586 14.0059V36.7579H53.9253V14.0059H52.8586ZM53.3919 37.2912H63.5039V36.2245H53.3919V37.2912ZM62.9706 36.7579V42.0667H64.0373V36.7579H62.9706ZM63.5039 41.5333H47.2826V42.6H63.5039V41.5333ZM47.8159 42.0667V14.0059H46.7493V42.0667H47.8159ZM71.7347 41.2661L71.4684 41.7282L71.4718 41.7301L71.7347 41.2661ZM67.8585 37.2635L67.3877 37.5141L67.3894 37.5172L67.8585 37.2635ZM67.8163 25.2555L67.3455 25.0049L67.344 25.0077L67.8163 25.2555ZM71.6926 21.2107L71.4297 20.7466L71.4263 20.7486L71.6926 21.2107ZM83.2793 21.2107L83.0129 21.6729L83.0222 21.678L83.2793 21.2107ZM87.1555 25.1712L86.6832 25.419L86.6864 25.425L87.1555 25.1712ZM87.1555 37.1792L86.6831 36.9317L86.6816 36.9346L87.1555 37.1792ZM83.2793 41.2661L83.5456 41.7282L83.548 41.7268L83.2793 41.2661ZM81.1305 35.8309L80.7111 35.5014L80.71 35.5028L81.1305 35.8309ZM81.1305 26.6459L80.71 26.974L80.7145 26.9797L80.7191 26.9853L81.1305 26.6459ZM73.8414 26.6459L73.4259 26.3115L73.4249 26.3127L73.8414 26.6459ZM73.8414 35.8309L73.4172 36.1542L73.4215 36.1598L73.4259 36.1653L73.8414 35.8309ZM77.5491 42.1653C75.4381 42.1653 73.5928 41.706 71.9977 40.8021L71.4718 41.7301C73.2474 42.7363 75.2783 43.232 77.5491 43.232V42.1653ZM72.001 40.804C70.431 39.8993 69.2084 38.6379 68.3276 37.0097L67.3894 37.5172C68.3624 39.3158 69.724 40.7229 71.4684 41.7282L72.001 40.804ZM68.3293 37.0129C67.4493 35.3596 67.0014 33.4397 67.0014 31.2384H65.9347C65.9347 33.5875 66.4138 35.6843 67.3877 37.5141L68.3293 37.0129ZM67.0014 31.2384C67.0014 29.0343 67.4364 27.1278 68.2886 25.5032L67.344 25.0077C66.3986 26.8099 65.9347 28.8921 65.9347 31.2384H67.0014ZM68.2871 25.5061C69.1686 23.8499 70.3911 22.5762 71.9589 21.6728L71.4263 20.7486C69.6796 21.7552 68.3179 23.178 67.3455 25.0049L68.2871 25.5061ZM71.9555 21.6747C73.5506 20.7708 75.3959 20.3115 77.507 20.3115V19.2448C75.2362 19.2448 73.2052 19.7405 71.4297 20.7467L71.9555 21.6747ZM77.507 20.3115C79.6183 20.3115 81.4479 20.7708 83.013 21.6728L83.5456 20.7486C81.7962 19.7404 79.7776 19.2448 77.507 19.2448V20.3115ZM83.0222 21.678C84.6152 22.5541 85.8327 23.7977 86.6832 25.419L87.6278 24.9234C86.6806 23.1179 85.314 21.7211 83.5363 20.7433L83.0222 21.678ZM86.6864 25.425C87.5651 27.0492 88.0126 28.9398 88.0126 31.112H89.0793C89.0793 28.79 88.5998 26.72 87.6246 24.9174L86.6864 25.425ZM88.0126 31.112C88.0126 33.3131 87.5648 35.2485 86.6831 36.9317L87.628 37.4267C88.6002 35.5707 89.0793 33.4613 89.0793 31.112H88.0126ZM86.6816 36.9346C85.829 38.5865 84.6079 39.8736 83.0105 40.8055L83.548 41.7268C85.3213 40.6924 86.6844 39.255 87.6295 37.4238L86.6816 36.9346ZM83.013 40.804C81.4469 41.7065 79.631 42.1653 77.5491 42.1653V43.232C79.793 43.232 81.7972 42.7358 83.5456 41.7282L83.013 40.804ZM77.507 38.0917C79.1807 38.0917 80.5466 37.4459 81.5509 36.1591L80.71 35.5028C79.9167 36.5193 78.8669 37.0251 77.507 37.0251V38.0917ZM81.5498 36.1604C82.5687 34.8636 83.0542 33.1927 83.0542 31.1963H81.9875C81.9875 33.0199 81.5461 34.4387 80.7111 35.5014L81.5498 36.1604ZM83.0542 31.1963C83.0542 29.2013 82.5693 27.5518 81.5419 26.3065L80.7191 26.9853C81.5455 27.987 81.9875 29.3711 81.9875 31.1963H83.0542ZM81.5509 26.3177C80.5466 25.0309 79.1807 24.3851 77.507 24.3851V25.4517C78.8669 25.4517 79.9167 25.9575 80.71 26.974L81.5509 26.3177ZM77.507 24.3851C75.8336 24.3851 74.4571 25.0303 73.4259 26.3115L74.2569 26.9803C75.0795 25.9582 76.1468 25.4517 77.507 25.4517V24.3851ZM73.4249 26.3127C72.4289 27.5578 71.9598 29.2049 71.9598 31.1963H73.0265C73.0265 29.3676 73.4562 27.9811 74.2579 26.979L73.4249 26.3127ZM71.9598 31.1963C71.9598 33.1892 72.4295 34.8578 73.4172 36.1542L74.2656 35.5077C73.4556 34.4446 73.0265 33.0234 73.0265 31.1963H71.9598ZM73.4259 36.1653C74.4571 37.4465 75.8336 38.0917 77.507 38.0917V37.0251C76.1468 37.0251 75.0795 36.5186 74.2569 35.4965L73.4259 36.1653ZM93.066 50.6619L92.5449 50.5484L92.437 51.0442L92.9267 51.1767L93.066 50.6619ZM94.2036 45.4373L94.353 44.9253L93.8042 44.7653L93.6825 45.3239L94.2036 45.4373ZM104.231 45.9429L103.967 45.4798L103.959 45.4841L104.231 45.9429ZM105.875 43.8363L105.371 43.6587L105.367 43.6721L105.875 43.8363ZM106.464 39.9179L106.997 39.9359L107.016 39.3845H106.464V39.9179ZM106.338 39.9179V39.3845H106.096L105.937 39.5667L106.338 39.9179ZM103.599 41.9824L103.822 42.467L103.599 41.9824ZM94.3722 39.9179L93.9416 40.2327L93.9471 40.2399L94.3722 39.9179ZM95.3834 22.9381L95.0037 22.5635L95.0012 22.5661L95.3834 22.9381ZM112.195 20.7893L112.728 20.7842L112.724 20.3597L112.309 20.2685L112.195 20.7893ZM112.237 39.7493L111.703 39.738L111.703 39.7418L112.237 39.7493ZM109.203 48.6816L108.826 48.3045L108.823 48.3072L109.203 48.6816ZM104.231 36.5472L103.9 36.1293L103.893 36.1351L104.231 36.5472ZM106.38 33.8085L106.853 34.056L106.914 33.9385L106.914 33.8059L106.38 33.8085ZM106.338 25.3397L106.871 25.3371L106.869 24.9318L106.478 24.8252L106.338 25.3397ZM99.5967 26.688L99.1812 26.3536L99.1763 26.3599L99.5967 26.688ZM99.1332 35.9995L98.6694 36.2627L98.6737 36.2702L98.6782 36.2776L99.1332 35.9995ZM100.397 51.0976C97.9439 51.0976 95.547 50.7807 93.2054 50.147L92.9267 51.1767C95.3602 51.8352 97.8508 52.1643 100.397 52.1643V51.0976ZM93.5872 50.7753L94.7248 45.5508L93.6825 45.3239L92.5449 50.5484L93.5872 50.7753ZM94.0543 45.9493C96.7754 46.743 99.0767 47.1504 100.945 47.1504V46.0837C99.2179 46.0837 97.025 45.7047 94.353 44.9253L94.0543 45.9493ZM100.945 47.1504C102.419 47.1504 103.626 46.9215 104.503 46.4018L103.959 45.4841C103.32 45.8632 102.336 46.0837 100.945 46.0837V47.1504ZM104.496 46.406C105.411 45.8833 106.037 45.0671 106.382 44.0004L105.367 43.6721C105.094 44.5155 104.625 45.1037 103.967 45.4799L104.496 46.406ZM106.378 44.0138C106.741 42.9853 106.94 41.6176 106.997 39.9359L105.931 39.8998C105.876 41.5326 105.683 42.7772 105.372 43.6588L106.378 44.0138ZM106.464 39.3845H106.338V40.4512H106.464V39.3845ZM105.937 39.5667C105.197 40.4115 104.345 41.053 103.377 41.4978L103.822 42.467C104.933 41.9567 105.906 41.2219 106.739 40.2691L105.937 39.5667ZM103.377 41.4978C102.413 41.9407 101.352 42.1653 100.187 42.1653V43.232C101.493 43.232 102.707 42.9792 103.822 42.467L103.377 41.4978ZM100.187 42.1653C97.8695 42.1653 96.0938 41.3072 94.7973 39.5958L93.9471 40.2399C95.4595 42.2363 97.56 43.232 100.187 43.232V42.1653ZM94.8027 39.603C93.516 37.8437 92.841 35.3707 92.841 32.1232H91.7743C91.7743 35.5047 92.4756 38.2281 93.9417 40.2327L94.8027 39.603ZM92.841 32.1232C92.841 28.1935 93.843 25.2854 95.7656 23.3101L95.0012 22.5661C92.8228 24.8042 91.7743 28.0194 91.7743 32.1232H92.841ZM95.763 23.3127C97.7138 21.3356 100.523 20.3115 104.274 20.3115V19.2448C100.327 19.2448 97.2101 20.3274 95.0037 22.5635L95.763 23.3127ZM104.274 20.3115C106.442 20.3115 109.042 20.6412 112.08 21.3102L112.309 20.2685C109.224 19.5892 106.543 19.2448 104.274 19.2448V20.3115ZM111.661 20.7945C111.717 26.5804 111.746 30.9321 111.746 33.8507H112.812C112.812 30.9267 112.784 26.5709 112.728 20.7842L111.661 20.7945ZM111.746 33.8507C111.746 36.462 111.731 38.4237 111.704 39.738L112.77 39.7607C112.798 38.4346 112.812 36.4638 112.812 33.8507H111.746ZM111.703 39.7418C111.648 43.652 110.658 46.4722 108.826 48.3045L109.58 49.0587C111.68 46.9586 112.713 43.8239 112.77 39.7568L111.703 39.7418ZM108.823 48.3072C107.021 50.1351 104.248 51.0976 100.397 51.0976V52.1643C104.411 52.1643 107.509 51.1605 109.583 49.056L108.823 48.3072ZM101.746 38.0496C102.76 38.0496 103.705 37.6699 104.57 36.9593L103.893 36.1351C103.185 36.7166 102.473 36.9829 101.746 36.9829V38.0496ZM104.563 36.9651C105.45 36.2616 106.209 35.2839 106.853 34.056L105.908 33.5611C105.315 34.6926 104.642 35.5407 103.9 36.1293L104.563 36.9651ZM106.914 33.8059L106.871 25.3371L105.805 25.3424L105.847 33.8112L106.914 33.8059ZM106.478 24.8252C105.51 24.5612 104.564 24.4272 103.642 24.4272V25.4939C104.46 25.4939 105.312 25.6127 106.198 25.8543L106.478 24.8252ZM103.642 24.4272C101.746 24.4272 100.23 25.051 99.1812 26.3536L100.012 27.0224C100.818 26.0217 101.998 25.4939 103.642 25.4939V24.4272ZM99.1763 26.3599C98.1757 27.6419 97.7151 29.4488 97.7151 31.7019H98.7818C98.7818 29.5731 99.22 28.0374 100.017 27.0161L99.1763 26.3599ZM97.7151 31.7019C97.7151 33.5752 98.0161 35.1116 98.6694 36.2627L99.5971 35.7362C99.0707 34.8087 98.7818 33.4801 98.7818 31.7019H97.7151ZM98.6782 36.2776C99.3866 37.4368 100.424 38.0496 101.746 38.0496V36.9829C100.82 36.9829 100.116 36.5846 99.5883 35.7214L98.6782 36.2776ZM121.892 41.2661L121.625 41.7282L121.629 41.7301L121.892 41.2661ZM118.015 37.2635L117.544 37.5141L117.546 37.5172L118.015 37.2635ZM117.973 25.2555L117.502 25.0049L117.501 25.0077L117.973 25.2555ZM121.849 21.2107L121.586 20.7466L121.583 20.7486L121.849 21.2107ZM133.436 21.2107L133.17 21.6729L133.179 21.678L133.436 21.2107ZM137.312 25.1712L136.84 25.419L136.843 25.425L137.312 25.1712ZM137.312 37.1792L136.84 36.9317L136.838 36.9346L137.312 37.1792ZM133.436 41.2661L133.702 41.7282L133.705 41.7268L133.436 41.2661ZM131.287 35.8309L130.868 35.5014L130.867 35.5028L131.287 35.8309ZM131.287 26.6459L130.867 26.974L130.871 26.9797L130.876 26.9853L131.287 26.6459ZM123.998 26.6459L123.583 26.3115L123.582 26.3127L123.998 26.6459ZM123.998 35.8309L123.574 36.1542L123.578 36.1598L123.583 36.1653L123.998 35.8309ZM127.706 42.1653C125.595 42.1653 123.75 41.706 122.154 40.8021L121.629 41.7301C123.404 42.7363 125.435 43.232 127.706 43.232V42.1653ZM122.158 40.804C120.588 39.8993 119.365 38.6379 118.484 37.0097L117.546 37.5172C118.519 39.3158 119.881 40.7229 121.625 41.7282L122.158 40.804ZM118.486 37.0129C117.606 35.3596 117.158 33.4397 117.158 31.2384H116.092C116.092 33.5875 116.571 35.6843 117.544 37.5141L118.486 37.0129ZM117.158 31.2384C117.158 29.0343 117.593 27.1278 118.445 25.5032L117.501 25.0077C116.555 26.8099 116.092 28.8921 116.092 31.2384H117.158ZM118.444 25.5061C119.325 23.8499 120.548 22.5762 122.116 21.6728L121.583 20.7486C119.836 21.7552 118.475 23.178 117.502 25.0049L118.444 25.5061ZM122.112 21.6747C123.707 20.7708 125.553 20.3115 127.664 20.3115V19.2448C125.393 19.2448 123.362 19.7405 121.586 20.7467L122.112 21.6747ZM127.664 20.3115C129.775 20.3115 131.605 20.7708 133.17 21.6728L133.702 20.7486C131.953 19.7404 129.934 19.2448 127.664 19.2448V20.3115ZM133.179 21.678C134.772 22.5541 135.99 23.7977 136.84 25.419L137.785 24.9234C136.837 23.1179 135.471 21.7211 133.693 20.7433L133.179 21.678ZM136.843 25.425C137.722 27.0492 138.169 28.9398 138.169 31.112H139.236C139.236 28.79 138.757 26.72 137.781 24.9174L136.843 25.425ZM138.169 31.112C138.169 33.3131 137.722 35.2485 136.84 36.9317L137.785 37.4267C138.757 35.5707 139.236 33.4613 139.236 31.112H138.169ZM136.838 36.9346C135.986 38.5865 134.765 39.8736 133.167 40.8055L133.705 41.7268C135.478 40.6924 136.841 39.255 137.786 37.4238L136.838 36.9346ZM133.17 40.804C131.604 41.7065 129.788 42.1653 127.706 42.1653V43.232C129.95 43.232 131.954 42.7358 133.702 41.7282L133.17 40.804ZM127.664 38.0917C129.338 38.0917 130.703 37.4459 131.708 36.1591L130.867 35.5028C130.073 36.5193 129.024 37.0251 127.664 37.0251V38.0917ZM131.707 36.1604C132.726 34.8636 133.211 33.1927 133.211 31.1963H132.144C132.144 33.0199 131.703 34.4387 130.868 35.5014L131.707 36.1604ZM133.211 31.1963C133.211 29.2013 132.726 27.5518 131.699 26.3065L130.876 26.9853C131.702 27.987 132.144 29.3711 132.144 31.1963H133.211ZM131.708 26.3177C130.703 25.0309 129.338 24.3851 127.664 24.3851V25.4517C129.024 25.4517 130.073 25.9575 130.867 26.974L131.708 26.3177ZM127.664 24.3851C125.99 24.3851 124.614 25.0303 123.583 26.3115L124.414 26.9803C125.236 25.9582 126.304 25.4517 127.664 25.4517V24.3851ZM123.582 26.3127C122.586 27.5578 122.117 29.2049 122.117 31.1963H123.183C123.183 29.3676 123.613 27.9811 124.415 26.979L123.582 26.3127ZM122.117 31.1963C122.117 33.1892 122.586 34.8578 123.574 36.1542L124.422 35.5077C123.612 34.4446 123.183 33.0234 123.183 31.1963H122.117ZM123.583 36.1653C124.614 37.4465 125.99 38.0917 127.664 38.0917V37.0251C126.304 37.0251 125.236 36.5186 124.414 35.4965L123.583 36.1653ZM145.082 40.5499L145.47 40.1846L145.082 40.5499ZM143.101 20.368V19.8347H142.568V20.368H143.101ZM149.042 20.368H149.576V19.8347H149.042V20.368ZM149.885 36.5051L149.482 36.8551L149.49 36.8638L149.885 36.5051ZM154.899 36.5051L154.597 36.0655L154.59 36.0701L154.899 36.5051ZM157.132 34.0192L157.596 34.2825L157.665 34.16V34.0192H157.132ZM157.132 20.368V19.8347H156.598V20.368H157.132ZM163.073 20.368H163.606V19.8347H163.073V20.368ZM163.073 42.0667V42.6H163.606V42.0667H163.073ZM157.132 42.0667H156.598V42.6H157.132V42.0667ZM157.132 39.2016H157.665V37.5906L156.704 38.8834L157.132 39.2016ZM154.309 41.7717L154.572 42.2356L154.576 42.2333L154.309 41.7717ZM150.517 42.1232C148.33 42.1232 146.67 41.4611 145.47 40.1846L144.693 40.9152C146.133 42.4475 148.097 43.1899 150.517 43.1899V42.1232ZM145.47 40.1846C144.266 38.9036 143.635 37.1234 143.635 34.7776H142.568C142.568 37.3192 143.257 39.3873 144.693 40.9152L145.47 40.1846ZM143.635 34.7776V20.368H142.568V34.7776H143.635ZM143.101 20.9013H149.042V19.8347H143.101V20.9013ZM148.509 20.368V33.8085H149.576V20.368H148.509ZM148.509 33.8085C148.509 35.044 148.811 36.0828 149.482 36.855L150.287 36.1551C149.835 35.6353 149.576 34.8764 149.576 33.8085H148.509ZM149.49 36.8638C150.168 37.6094 151.079 37.9653 152.16 37.9653V36.8987C151.331 36.8987 150.725 36.6366 150.279 36.1463L149.49 36.8638ZM152.16 37.9653C153.239 37.9653 154.258 37.6141 155.207 36.94L154.59 36.0701C153.798 36.632 152.992 36.8987 152.16 36.8987V37.9653ZM155.201 36.9446C156.172 36.2766 156.97 35.3852 157.596 34.2825L156.668 33.7559C156.114 34.7318 155.423 35.4976 154.597 36.0656L155.201 36.9446ZM157.665 34.0192V20.368H156.598V34.0192H157.665ZM157.132 20.9013H163.073V19.8347H157.132V20.9013ZM162.539 20.368V42.0667H163.606V20.368H162.539ZM163.073 41.5333H157.132V42.6H163.073V41.5333ZM157.665 42.0667V39.2016H156.598V42.0667H157.665ZM156.704 38.8834C155.928 39.9269 155.04 40.7323 154.042 41.3102L154.576 42.2333C155.713 41.5753 156.707 40.6673 157.56 39.5198L156.704 38.8834ZM154.046 41.3079C153.104 41.8423 151.936 42.1232 150.517 42.1232V43.1899C152.075 43.1899 153.435 42.8809 154.572 42.2356L154.046 41.3079ZM171.779 41.1819L171.411 41.5689L171.422 41.5783L171.779 41.1819ZM170.135 25.4661H170.669V24.9328H170.135V25.4661ZM166.765 25.4661H166.231V25.9995H166.765V25.4661ZM166.765 20.368V19.8347H166.231V20.368H166.765ZM170.135 20.368V20.9013H170.669V20.368H170.135ZM170.135 15.7333L170.047 15.2075L169.602 15.2826V15.7333H170.135ZM176.034 14.9749H176.567V14.3932L175.988 14.4436L176.034 14.9749ZM176.034 20.368H175.501V20.9013H176.034V20.368ZM181.511 20.368H182.045V19.8347H181.511V20.368ZM181.511 25.4661V25.9995H182.045V25.4661H181.511ZM176.034 25.4661V24.9328H175.501V25.4661H176.034ZM176.54 37.0528L176.179 37.4459L176.187 37.4531L176.195 37.4599L176.54 37.0528ZM180.753 36.9685L181.265 36.8188L181.106 36.2742L180.572 36.4669L180.753 36.9685ZM182.059 41.4347L182.286 41.9176L182.699 41.7236L182.571 41.285L182.059 41.4347ZM176.498 42.1653C174.562 42.1653 173.132 41.6823 172.135 40.7854L171.422 41.5783C172.672 42.7038 174.389 43.232 176.498 43.232V42.1653ZM172.146 40.795C171.181 39.8801 170.669 38.5741 170.669 36.8H169.602C169.602 38.7898 170.185 40.4051 171.412 41.5688L172.146 40.795ZM170.669 36.8V25.4661H169.602V36.8H170.669ZM170.135 24.9328H166.765V25.9995H170.135V24.9328ZM167.298 25.4661V20.368H166.231V25.4661H167.298ZM166.765 20.9013H170.135V19.8347H166.765V20.9013ZM170.669 20.368V15.7333H169.602V20.368H170.669ZM170.224 16.2592C172.205 15.9244 174.157 15.6735 176.08 15.5063L175.988 14.4436C174.035 14.6134 172.055 14.8681 170.047 15.2075L170.224 16.2592ZM175.501 14.9749V20.368H176.567V14.9749H175.501ZM176.034 20.9013H181.511V19.8347H176.034V20.9013ZM180.978 20.368V25.4661H182.045V20.368H180.978ZM181.511 24.9328H176.034V25.9995H181.511V24.9328ZM175.501 25.4661V35.7045H176.567V25.4661H175.501ZM175.501 35.7045C175.501 36.3979 175.702 37.0086 176.179 37.4459L176.9 36.6596C176.703 36.479 176.567 36.1908 176.567 35.7045H175.501ZM176.195 37.4599C176.686 37.8751 177.329 38.0496 178.057 38.0496V36.9829C177.492 36.9829 177.124 36.8485 176.884 36.6457L176.195 37.4599ZM178.057 38.0496C178.923 38.0496 179.885 37.8491 180.934 37.4702L180.572 36.4669C179.599 36.8182 178.763 36.9829 178.057 36.9829V38.0496ZM180.241 37.1182L181.547 41.5844L182.571 41.285L181.265 36.8188L180.241 37.1182ZM181.833 40.9518C180.103 41.7626 178.326 42.1653 176.498 42.1653V43.232C178.489 43.232 180.42 42.7921 182.286 41.9176L181.833 40.9518Z" fill="black"/>
<defs>
<filter id="filter0_d" x="0.600098" y="0.533333" width="234.133" height="64.5333" filterUnits="userSpaceOnUse" color-interpolation-filters="sRGB">
<feFlood flood-opacity="0" result="BackgroundImageFix"/>
<feColorMatrix in="SourceAlpha" type="matrix" values="0 0 0 0 0 0 0 0 0 0 0 0 0 0 0 0 0 0 127 0"/>
<feOffset dx="4.26667" dy="4.26667"/>
<feGaussianBlur stdDeviation="1.33333"/>
<feColorMatrix type="matrix" values="0 0 0 0 0 0 0 0 0 0 0 0 0 0 0 0 0 0 0.25 0"/>
<feBlend mode="normal" in2="BackgroundImageFix" result="effect1_dropShadow"/>
<feBlend mode="normal" in="SourceGraphic" in2="effect1_dropShadow" result="shape"/>
</filter>
</defs>
</svg>
