<svg width="70" height="70" viewBox="0 0 70 70" fill="none" xmlns="http://www.w3.org/2000/svg">
<g clip-path="url(#clip0)">
<path d="M0.505615 35.1959V69.5918H34.9015H69.2974V35.1959V0.800003H34.9015H0.505615V35.1959ZM12.8129 10.7134V15.3058H9.26582H5.71874V10.7134V6.12091H9.26582H12.8129V10.7134ZM64.0843 10.7134V15.3058H60.5372H56.9901V10.7134V6.12091H60.5372H64.0843V10.7134ZM12.8129 22.9705V27.5313H9.26582H5.71874V22.9705V18.4097H9.26582H12.8129V22.9705ZM64.0843 22.9705V27.5313H60.5372H56.9901V22.9705V18.4097H60.5372H64.0843V22.9705ZM37.6048 27.1512C43.6778 31.2812 48.633 34.6765 48.6169 34.7018C48.5739 34.7462 26.3079 49.8918 26.2112 49.9361C26.1574 49.9614 26.1413 46.8829 26.1413 34.6638V19.3535L26.3509 19.4992C26.4638 19.5816 31.5264 23.0211 37.6048 27.1512ZM12.8129 35.1959V39.7567H9.26582H5.71874V35.1959V30.6351H9.26582H12.8129V35.1959ZM64.0843 35.1959V39.7567H60.5372H56.9901V35.1959V30.6351H60.5372H64.0843V35.1959ZM12.8129 47.4213V51.9821H9.26582H5.71874V47.4213V42.8605H9.26582H12.8129V47.4213ZM64.0843 47.4213V51.9821H60.5372H56.9901V47.4213V42.8605H60.5372H64.0843V47.4213ZM12.8129 59.6784V64.2709H9.26582H5.71874V59.6784V55.086H9.26582H12.8129V59.6784ZM64.0843 59.6784V64.2709H60.5372H56.9901V59.6784V55.086H60.5372H64.0843V59.6784Z" fill="#FFE600"/>
</g>
<defs>
<clipPath id="clip0">
<rect width="68.7918" height="68.7918" fill="white" transform="translate(0.505615 0.799988)"/>
</clipPath>
</defs>
</svg>
